<svg width="80" height="32" viewBox="0 0 80 32" fill="none" xmlns="http://www.w3.org/2000/svg">
  <path d="M14.4342 17.4356C16.3263 16.9268 17.0305 15.188 17.0305 13.8251C17.0305 11.4446 15.3914 9.84668 12.9509 9.84668H7.96484V12.2558H12.5745C13.5863 12.2558 14.2845 12.8953 14.2845 13.8251C14.2845 14.7548 13.5965 15.378 12.5745 15.378H9.15673V17.785H11.6963L14.0396 22.1046H17.1337L14.4342 17.4356Z" fill="#222659"/>
  <path d="M18.2285 9.84668V12.2517H21.4662V22.0985H24.1596V12.2517H27.3933V9.84668H18.2285Z" fill="#222659"/>
  <path d="M2.69338 19.6935V9.84668H0V22.0985H7.96277V19.6935H2.69338Z" fill="#222659"/>
  <path d="M47.4327 19.2031C47.1286 19.2015 46.8308 19.2911 46.5772 19.4605C46.3235 19.63 46.1254 19.8716 46.0079 20.1549C45.8904 20.4381 45.8589 20.7502 45.9172 21.0516C45.9755 21.3529 46.1212 21.63 46.3357 21.8478C46.5501 22.0655 46.8238 22.214 47.1219 22.2745C47.4201 22.335 47.7293 22.3048 48.0104 22.1876C48.2916 22.0705 48.5319 21.8717 48.701 21.6165C48.8702 21.3613 48.9605 21.0611 48.9605 20.754C48.9563 20.3454 48.7942 19.9546 48.5088 19.6649C48.2235 19.3752 47.8373 19.2095 47.4327 19.2031Z" fill="#222659"/>
  <path d="M53.6715 9.86133H51.2412V22.1029H53.6715V9.86133Z" fill="#222659"/>
  <path d="M60.754 19.7775L60.6528 19.8797C60.4437 20.0361 60.1885 20.1167 59.9284 20.1086C59.5014 20.1086 59.2242 19.7653 59.2242 19.232V15.368H60.9726V13.1919H59.2242V10.8032H58.9571L55.3511 14.3014V15.368H56.7676V19.8491C56.7676 21.4429 57.666 22.3215 59.295 22.3215C60.3736 22.3215 60.9483 22.0048 61.2417 21.7391L61.2781 21.7044L60.754 19.7775Z" fill="#222659"/>
  <path d="M38.1709 0H35.4775V31.9537H38.1709V0Z" fill="#222659"/>
  <path d="M49.3066 31.9127V29.9123H47.0806V31.9147H46.0688V27.1436H47.0806V29.0173H49.3066V27.1436H50.3184V31.9127H49.3066Z" fill="#222659"/>
  <path d="M53.4852 27.064C54.9159 27.064 55.956 28.0856 55.956 29.5323C55.956 30.979 54.9159 31.9986 53.4852 31.9986C52.0546 31.9986 51.0205 30.977 51.0205 29.5323C51.0205 28.0877 52.0606 27.064 53.4852 27.064ZM53.4852 27.9651C52.6131 27.9651 52.0546 28.6373 52.0546 29.5323C52.0546 30.4273 52.6131 31.0975 53.4852 31.0975C54.3574 31.0975 54.922 30.4191 54.922 29.5323C54.922 28.6455 54.3554 27.9651 53.4852 27.9651Z" fill="#222659"/>
  <path d="M56.6641 31.9127V27.1436H59.151C60.0495 27.1436 60.5109 27.7218 60.5109 28.3593C60.5254 28.6087 60.4521 28.8552 60.304 29.0553C60.1559 29.2553 59.9424 29.396 59.7014 29.4525C59.9651 29.5091 60.2005 29.6577 60.3663 29.8722C60.5321 30.0867 60.6177 30.3534 60.608 30.6254C60.608 31.3406 60.1345 31.9127 59.234 31.9127H56.6641ZM57.6759 29.052H58.9365C59.0077 29.0565 59.079 29.0462 59.1461 29.0218C59.2132 28.9974 59.2746 28.9594 59.3265 28.9101C59.3785 28.8608 59.4199 28.8012 59.4482 28.7352C59.4765 28.6691 59.4911 28.5979 59.4911 28.5259C59.4911 28.4539 59.4765 28.3826 59.4482 28.3166C59.4199 28.2505 59.3785 28.191 59.3265 28.1417C59.2746 28.0924 59.2132 28.0543 59.1461 28.0299C59.079 28.0055 59.0077 27.9952 58.9365 27.9997H57.6759V29.052ZM57.6759 31.0402H58.973C59.0509 31.0494 59.1299 31.0414 59.2045 31.0169C59.2792 30.9924 59.3477 30.9518 59.4053 30.8981C59.463 30.8443 59.5085 30.7786 59.5386 30.7054C59.5688 30.6323 59.5829 30.5534 59.58 30.4742C59.5804 30.396 59.5645 30.3187 59.5334 30.2472C59.5023 30.1756 59.4567 30.1115 59.3994 30.0589C59.3422 30.0063 59.2747 29.9664 59.2012 29.9419C59.1277 29.9173 59.05 29.9086 58.973 29.9164H57.6759V31.0402Z" fill="#222659"/>
  <path d="M63.599 27.064C65.0297 27.064 66.0698 28.0856 66.0698 29.5323C66.0698 30.979 65.0297 31.9986 63.599 31.9986C62.1683 31.9986 61.1343 30.977 61.1343 29.5323C61.1343 28.0877 62.1744 27.064 63.599 27.064ZM63.599 27.9651C62.7268 27.9651 62.1683 28.6373 62.1683 29.5323C62.1683 30.4273 62.7268 31.0975 63.599 31.0975C64.4712 31.0975 65.0357 30.4191 65.0357 29.5323C65.0357 28.6455 64.4691 27.9651 63.599 27.9651Z" fill="#222659"/>
  <path d="M66.5596 29.5322C66.5596 28.065 67.6584 27.0638 69.0384 27.0638C69.4485 27.0471 69.855 27.1477 70.2108 27.3542C70.5667 27.5606 70.8576 27.8644 71.0499 28.2305L70.1858 28.6596C70.0753 28.4494 69.91 28.2735 69.7078 28.1511C69.5057 28.0287 69.2742 27.9643 69.0384 27.9649C68.2169 27.9649 67.5936 28.631 67.5936 29.5322C67.5936 30.4333 68.2169 31.0973 69.0384 31.0973C69.2743 31.0997 69.5063 31.0363 69.7087 30.9141C69.9112 30.7919 70.0763 30.6156 70.1858 30.4047L71.0499 30.8256C70.8571 31.1917 70.5663 31.4959 70.2107 31.7032C69.8551 31.9106 69.4489 32.0129 69.0384 31.9985C67.6503 31.9985 66.5596 30.9972 66.5596 29.5322Z" fill="#222659"/>
  <path d="M72.7351 31.913V28.0306H71.353V27.1377H75.1209V28.0306H73.7469V31.913H72.7351Z" fill="#222659"/>
  <path d="M75.7666 27.1436H76.7784V30.4129L78.9659 27.1436H79.9999V31.9127H78.9881V28.5371L76.7359 31.9127H75.7666V27.1436Z" fill="#222659"/>
</svg>
