<?xml version="1.0" encoding="UTF-8" standalone="no"?><svg xmlns="http://www.w3.org/2000/svg" xmlns:xlink="http://www.w3.org/1999/xlink" contentStyleType="text/css" height="328px" preserveAspectRatio="none" style="width:595px;height:328px;background:#FFFFFF;" version="1.1" viewBox="0 0 595 328" width="595px" zoomAndPan="magnify"><defs/><g><!--MD5=[7d9187386508c76fd3c53af9230e21f3]
class Кафар_Умяров--><g id="elem_Кафар_Умяров"><rect codeLine="1" fill="#F1F1F1" height="206.4844" id="Кафар_Умяров" rx="2.5" ry="2.5" style="stroke:#181818;stroke-width:0.5;" width="402" x="7" y="7"/><ellipse cx="153.25" cy="23" fill="#ADD1B2" rx="11" ry="11" style="stroke:#181818;stroke-width:1.0;"/><path d="M156.0156,18.875 Q156.1719,18.6563 156.3594,18.5469 Q156.5469,18.4375 156.7656,18.4375 Q157.1406,18.4375 157.375,18.6953 Q157.6094,18.9531 157.6094,19.5625 L157.6094,21.0156 Q157.6094,21.625 157.375,21.8906 Q157.1406,22.1563 156.7656,22.1563 Q156.4219,22.1563 156.2188,21.9531 Q156.0156,21.7656 155.9063,21.25 Q155.8594,20.8906 155.6719,20.7031 Q155.3438,20.3281 154.7344,20.1094 Q154.125,19.8906 153.5,19.8906 Q152.7344,19.8906 152.1016,20.2188 Q151.4688,20.5469 150.9766,21.2969 Q150.4844,22.0469 150.4844,23.0781 L150.4844,24.1719 Q150.4844,25.4063 151.375,26.2266 Q152.2656,27.0469 153.8594,27.0469 Q154.7969,27.0469 155.4531,26.7969 Q155.8438,26.6406 156.2656,26.2031 Q156.5313,25.9375 156.6797,25.8594 Q156.8281,25.7813 157.0313,25.7813 Q157.3594,25.7813 157.6172,26.0391 Q157.875,26.2969 157.875,26.6406 Q157.875,26.9844 157.5313,27.3906 Q157.0313,27.9688 156.2344,28.2969 Q155.1563,28.75 153.8594,28.75 Q152.3438,28.75 151.1406,28.125 Q150.1563,27.625 149.4688,26.5547 Q148.7813,25.4844 148.7813,24.2031 L148.7813,23.0469 Q148.7813,21.7188 149.3984,20.5703 Q150.0156,19.4219 151.1094,18.8047 Q152.2031,18.1875 153.4375,18.1875 Q154.1719,18.1875 154.8203,18.3516 Q155.4688,18.5156 156.0156,18.875 Z " fill="#000000"/><text fill="#000000" font-family="sans-serif" font-size="14" lengthAdjust="spacing" textLength="101" x="173.75" y="28.7285">Кафар_Умяров</text><line style="stroke:#181818;stroke-width:0.5;" x1="8" x2="408" y1="39" y2="39"/><text fill="#000000" font-family="sans-serif" font-size="14" lengthAdjust="spacing" textLength="275" x="27" y="57.5332">жил в алупке или алуште в кипричном 2-х</text><text fill="#000000" font-family="sans-serif" font-size="14" lengthAdjust="spacing" textLength="200" x="27" y="75.1426">этажном доме на набережной</text><text fill="#000000" font-family="sans-serif" font-size="14" lengthAdjust="spacing" textLength="185" x="27" y="92.752">учился в спб на факультете</text><text fill="#000000" font-family="sans-serif" font-size="14" lengthAdjust="spacing" textLength="223" x="27" y="110.3613">естественных наук до революции</text><rect fill="none" height="6" style="stroke:#C82930;stroke-width:1.0;" width="6" x="15" y="117.4375"/><text fill="#000000" font-family="sans-serif" font-size="14" lengthAdjust="spacing" textLength="92" x="27" y="127.9707">конец 19 века</text><text fill="#000000" font-family="sans-serif" font-size="14" lengthAdjust="spacing" textLength="166" x="27" y="145.5801">Красный террор в Крыму</text><text fill="#000000" font-family="sans-serif" font-size="14" lengthAdjust="spacing" textLength="376" x="27" y="163.1895">умер при пересылке в казахстан после 2 мировой войны</text><line style="stroke:#181818;stroke-width:0.5;" x1="8" x2="408" y1="170.2656" y2="170.2656"/><text fill="#000000" font-family="sans-serif" font-size="14" lengthAdjust="spacing" textLength="340" x="13" y="188.7988">пережил Массовый террор в Крыму (1917—1918) и</text><text fill="#000000" font-family="sans-serif" font-size="14" lengthAdjust="spacing" textLength="322" x="13" y="206.4082">дружил с художником николаем ге (был в крыму)</text></g><!--MD5=[fc809fad64d2309b402cd3e1b96db205]
class Саид_Кафар_Оглы_Умяров--><g id="elem_Саид_Кафар_Оглы_Умяров"><rect codeLine="14" fill="#F1F1F1" height="48" id="Саид_Кафар_Оглы_Умяров" rx="2.5" ry="2.5" style="stroke:#181818;stroke-width:0.5;" width="217" x="99.5" y="273"/><ellipse cx="114.5" cy="289" fill="#ADD1B2" rx="11" ry="11" style="stroke:#181818;stroke-width:1.0;"/><path d="M117.2656,284.875 Q117.4219,284.6563 117.6094,284.5469 Q117.7969,284.4375 118.0156,284.4375 Q118.3906,284.4375 118.625,284.6953 Q118.8594,284.9531 118.8594,285.5625 L118.8594,287.0156 Q118.8594,287.625 118.625,287.8906 Q118.3906,288.1563 118.0156,288.1563 Q117.6719,288.1563 117.4688,287.9531 Q117.2656,287.7656 117.1563,287.25 Q117.1094,286.8906 116.9219,286.7031 Q116.5938,286.3281 115.9844,286.1094 Q115.375,285.8906 114.75,285.8906 Q113.9844,285.8906 113.3516,286.2188 Q112.7188,286.5469 112.2266,287.2969 Q111.7344,288.0469 111.7344,289.0781 L111.7344,290.1719 Q111.7344,291.4063 112.625,292.2266 Q113.5156,293.0469 115.1094,293.0469 Q116.0469,293.0469 116.7031,292.7969 Q117.0938,292.6406 117.5156,292.2031 Q117.7813,291.9375 117.9297,291.8594 Q118.0781,291.7813 118.2813,291.7813 Q118.6094,291.7813 118.8672,292.0391 Q119.125,292.2969 119.125,292.6406 Q119.125,292.9844 118.7813,293.3906 Q118.2813,293.9688 117.4844,294.2969 Q116.4063,294.75 115.1094,294.75 Q113.5938,294.75 112.3906,294.125 Q111.4063,293.625 110.7188,292.5547 Q110.0313,291.4844 110.0313,290.2031 L110.0313,289.0469 Q110.0313,287.7188 110.6484,286.5703 Q111.2656,285.4219 112.3594,284.8047 Q113.4531,284.1875 114.6875,284.1875 Q115.4219,284.1875 116.0703,284.3516 Q116.7188,284.5156 117.2656,284.875 Z " fill="#000000"/><text fill="#000000" font-family="sans-serif" font-size="14" lengthAdjust="spacing" textLength="185" x="128.5" y="294.7285">Саид_Кафар_Оглы_Умяров</text><line style="stroke:#181818;stroke-width:0.5;" x1="100.5" x2="315.5" y1="305" y2="305"/><line style="stroke:#181818;stroke-width:0.5;" x1="100.5" x2="315.5" y1="313" y2="313"/></g><!--MD5=[0b150fb24fb95ab45441a89887810bbb]
class Вера_Николаевна_Перетягина--><g id="elem_Вера_Николаевна_Перетягина"><rect codeLine="19" fill="#F1F1F1" height="48" id="Вера_Николаевна_Перетягина" rx="2.5" ry="2.5" style="stroke:#181818;stroke-width:0.5;" width="236" x="352" y="273"/><ellipse cx="367" cy="289" fill="#ADD1B2" rx="11" ry="11" style="stroke:#181818;stroke-width:1.0;"/><path d="M369.7656,284.875 Q369.9219,284.6563 370.1094,284.5469 Q370.2969,284.4375 370.5156,284.4375 Q370.8906,284.4375 371.125,284.6953 Q371.3594,284.9531 371.3594,285.5625 L371.3594,287.0156 Q371.3594,287.625 371.125,287.8906 Q370.8906,288.1563 370.5156,288.1563 Q370.1719,288.1563 369.9688,287.9531 Q369.7656,287.7656 369.6563,287.25 Q369.6094,286.8906 369.4219,286.7031 Q369.0938,286.3281 368.4844,286.1094 Q367.875,285.8906 367.25,285.8906 Q366.4844,285.8906 365.8516,286.2188 Q365.2188,286.5469 364.7266,287.2969 Q364.2344,288.0469 364.2344,289.0781 L364.2344,290.1719 Q364.2344,291.4063 365.125,292.2266 Q366.0156,293.0469 367.6094,293.0469 Q368.5469,293.0469 369.2031,292.7969 Q369.5938,292.6406 370.0156,292.2031 Q370.2813,291.9375 370.4297,291.8594 Q370.5781,291.7813 370.7813,291.7813 Q371.1094,291.7813 371.3672,292.0391 Q371.625,292.2969 371.625,292.6406 Q371.625,292.9844 371.2813,293.3906 Q370.7813,293.9688 369.9844,294.2969 Q368.9063,294.75 367.6094,294.75 Q366.0938,294.75 364.8906,294.125 Q363.9063,293.625 363.2188,292.5547 Q362.5313,291.4844 362.5313,290.2031 L362.5313,289.0469 Q362.5313,287.7188 363.1484,286.5703 Q363.7656,285.4219 364.8594,284.8047 Q365.9531,284.1875 367.1875,284.1875 Q367.9219,284.1875 368.5703,284.3516 Q369.2188,284.5156 369.7656,284.875 Z " fill="#000000"/><text fill="#000000" font-family="sans-serif" font-size="14" lengthAdjust="spacing" textLength="204" x="381" y="294.7285">Вера_Николаевна_Перетягина</text><line style="stroke:#181818;stroke-width:0.5;" x1="353" x2="587" y1="305" y2="305"/><line style="stroke:#181818;stroke-width:0.5;" x1="353" x2="587" y1="313" y2="313"/></g><!--MD5=[fcd308dfc2f38a9d8b52fce79aedaa44]
reverse link Кафар_Умяров to Саид_Кафар_Оглы_Умяров--><g id="link_Кафар_Умяров_Саид_Кафар_Оглы_Умяров"><path codeLine="13" d="M208,233.35 C208,248.25 208,261.99 208,272.79 " fill="none" id="Кафар_Умяров-backto-Саид_Кафар_Оглы_Умяров" style="stroke:#181818;stroke-width:1.0;"/><polygon fill="none" points="201,233.24,208,213.24,215,233.24,201,233.24" style="stroke:#181818;stroke-width:1.0;"/></g><!--MD5=[136a4a4f570d550df9e08ff0a815f51f]
reverse link Саид_Кафар_Оглы_Умяров to Вера_Николаевна_Перетягина--><g id="link_Саид_Кафар_Оглы_Умяров_Вера_Николаевна_Перетягина"><path codeLine="18" d="M321.94,297 C331.88,297 341.82,297 351.76,297 " fill="none" id="Саид_Кафар_Оглы_Умяров-backto-Вера_Николаевна_Перетягина" style="stroke:#181818;stroke-width:1.0;"/><polygon fill="#181818" points="316.74,297,325.74,301,321.74,297,325.74,293,316.74,297" style="stroke:#181818;stroke-width:1.0;"/></g><!--MD5=[6917014242657a9da66df03cbb74f7a4]
@startuml
class Кафар_Умяров{
    жил в алупке или алуште в кипричном 2-х
    этажном доме на набережной
    учился в спб на факультете 
    естественных наук до революции
    - конец 19 века
    пережил Массовый террор в Крыму (1917—1918) и
    Красный террор в Крыму
    дружил с художником николаем ге (был в крыму)
    умер при пересылке в казахстан после 2 мировой войны
}

Саид_Кафар_Оглы_Умяров -up-|> Кафар_Умяров
class Саид_Кафар_Оглы_Умяров{

}

Вера_Николаевна_Перетягина -left-> Саид_Кафар_Оглы_Умяров
class Вера_Николаевна_Перетягина{

}
@enduml

PlantUML version 1.2022.5(Sat Apr 30 13:55:52 MSK 2022)
(GPL source distribution)
Java Runtime: Java(TM) SE Runtime Environment
JVM: Java HotSpot(TM) 64-Bit Server VM
Default Encoding: Cp1251
Language: ru
Country: RU
--></g></svg>