<?xml version="1.0" encoding="UTF-8" standalone="no"?><svg xmlns="http://www.w3.org/2000/svg" xmlns:xlink="http://www.w3.org/1999/xlink" contentStyleType="text/css" height="494px" preserveAspectRatio="none" style="width:1296px;height:494px;background:#FFFFFF;" version="1.1" viewBox="0 0 1296 494" width="1296px" zoomAndPan="magnify"><defs/><g><!--MD5=[465be109f219a5e2fae4d8c9e26403aa]
class Гюльзар--><g id="elem_Гюльзар"><rect fill="#F1F1F1" height="48" id="Гюльзар" rx="2.5" ry="2.5" style="stroke:#181818;stroke-width:0.5;" width="89" x="7" y="115"/><ellipse cx="22" cy="131" fill="#ADD1B2" rx="11" ry="11" style="stroke:#181818;stroke-width:1.0;"/><path d="M24.7656,126.875 Q24.9219,126.6563 25.1094,126.5469 Q25.2969,126.4375 25.5156,126.4375 Q25.8906,126.4375 26.125,126.6953 Q26.3594,126.9531 26.3594,127.5625 L26.3594,129.0156 Q26.3594,129.625 26.125,129.8906 Q25.8906,130.1563 25.5156,130.1563 Q25.1719,130.1563 24.9688,129.9531 Q24.7656,129.7656 24.6563,129.25 Q24.6094,128.8906 24.4219,128.7031 Q24.0938,128.3281 23.4844,128.1094 Q22.875,127.8906 22.25,127.8906 Q21.4844,127.8906 20.8516,128.2188 Q20.2188,128.5469 19.7266,129.2969 Q19.2344,130.0469 19.2344,131.0781 L19.2344,132.1719 Q19.2344,133.4063 20.125,134.2266 Q21.0156,135.0469 22.6094,135.0469 Q23.5469,135.0469 24.2031,134.7969 Q24.5938,134.6406 25.0156,134.2031 Q25.2813,133.9375 25.4297,133.8594 Q25.5781,133.7813 25.7813,133.7813 Q26.1094,133.7813 26.3672,134.0391 Q26.625,134.2969 26.625,134.6406 Q26.625,134.9844 26.2813,135.3906 Q25.7813,135.9688 24.9844,136.2969 Q23.9063,136.75 22.6094,136.75 Q21.0938,136.75 19.8906,136.125 Q18.9063,135.625 18.2188,134.5547 Q17.5313,133.4844 17.5313,132.2031 L17.5313,131.0469 Q17.5313,129.7188 18.1484,128.5703 Q18.7656,127.4219 19.8594,126.8047 Q20.9531,126.1875 22.1875,126.1875 Q22.9219,126.1875 23.5703,126.3516 Q24.2188,126.5156 24.7656,126.875 Z " fill="#000000"/><text fill="#000000" font-family="sans-serif" font-size="14" lengthAdjust="spacing" textLength="57" x="36" y="136.7285">Гюльзар</text><line style="stroke:#181818;stroke-width:0.5;" x1="8" x2="95" y1="147" y2="147"/><line style="stroke:#181818;stroke-width:0.5;" x1="8" x2="95" y1="155" y2="155"/></g><!--MD5=[28473d5ca736062b11a0126d7c690b40]
class Гафар_Умеров--><g id="elem_Гафар_Умеров"><rect fill="#F1F1F1" height="48" id="Гафар_Умеров" rx="2.5" ry="2.5" style="stroke:#181818;stroke-width:0.5;" width="133" x="102" y="7"/><ellipse cx="117" cy="23" fill="#ADD1B2" rx="11" ry="11" style="stroke:#181818;stroke-width:1.0;"/><path d="M119.7656,18.875 Q119.9219,18.6563 120.1094,18.5469 Q120.2969,18.4375 120.5156,18.4375 Q120.8906,18.4375 121.125,18.6953 Q121.3594,18.9531 121.3594,19.5625 L121.3594,21.0156 Q121.3594,21.625 121.125,21.8906 Q120.8906,22.1563 120.5156,22.1563 Q120.1719,22.1563 119.9688,21.9531 Q119.7656,21.7656 119.6563,21.25 Q119.6094,20.8906 119.4219,20.7031 Q119.0938,20.3281 118.4844,20.1094 Q117.875,19.8906 117.25,19.8906 Q116.4844,19.8906 115.8516,20.2188 Q115.2188,20.5469 114.7266,21.2969 Q114.2344,22.0469 114.2344,23.0781 L114.2344,24.1719 Q114.2344,25.4063 115.125,26.2266 Q116.0156,27.0469 117.6094,27.0469 Q118.5469,27.0469 119.2031,26.7969 Q119.5938,26.6406 120.0156,26.2031 Q120.2813,25.9375 120.4297,25.8594 Q120.5781,25.7813 120.7813,25.7813 Q121.1094,25.7813 121.3672,26.0391 Q121.625,26.2969 121.625,26.6406 Q121.625,26.9844 121.2813,27.3906 Q120.7813,27.9688 119.9844,28.2969 Q118.9063,28.75 117.6094,28.75 Q116.0938,28.75 114.8906,28.125 Q113.9063,27.625 113.2188,26.5547 Q112.5313,25.4844 112.5313,24.2031 L112.5313,23.0469 Q112.5313,21.7188 113.1484,20.5703 Q113.7656,19.4219 114.8594,18.8047 Q115.9531,18.1875 117.1875,18.1875 Q117.9219,18.1875 118.5703,18.3516 Q119.2188,18.5156 119.7656,18.875 Z " fill="#000000"/><text fill="#000000" font-family="sans-serif" font-size="14" lengthAdjust="spacing" textLength="101" x="131" y="28.7285">Гафар_Умеров</text><line style="stroke:#181818;stroke-width:0.5;" x1="103" x2="234" y1="39" y2="39"/><line style="stroke:#181818;stroke-width:0.5;" x1="103" x2="234" y1="47" y2="47"/></g><!--MD5=[5cbbfa007e3b4932e6a7d4d143b99c45]
class Сабре--><g id="elem_Сабре"><rect fill="#F1F1F1" height="48" id="Сабре" rx="2.5" ry="2.5" style="stroke:#181818;stroke-width:0.5;" width="74" x="131.5" y="115"/><ellipse cx="146.5" cy="131" fill="#ADD1B2" rx="11" ry="11" style="stroke:#181818;stroke-width:1.0;"/><path d="M149.2656,126.875 Q149.4219,126.6563 149.6094,126.5469 Q149.7969,126.4375 150.0156,126.4375 Q150.3906,126.4375 150.625,126.6953 Q150.8594,126.9531 150.8594,127.5625 L150.8594,129.0156 Q150.8594,129.625 150.625,129.8906 Q150.3906,130.1563 150.0156,130.1563 Q149.6719,130.1563 149.4688,129.9531 Q149.2656,129.7656 149.1563,129.25 Q149.1094,128.8906 148.9219,128.7031 Q148.5938,128.3281 147.9844,128.1094 Q147.375,127.8906 146.75,127.8906 Q145.9844,127.8906 145.3516,128.2188 Q144.7188,128.5469 144.2266,129.2969 Q143.7344,130.0469 143.7344,131.0781 L143.7344,132.1719 Q143.7344,133.4063 144.625,134.2266 Q145.5156,135.0469 147.1094,135.0469 Q148.0469,135.0469 148.7031,134.7969 Q149.0938,134.6406 149.5156,134.2031 Q149.7813,133.9375 149.9297,133.8594 Q150.0781,133.7813 150.2813,133.7813 Q150.6094,133.7813 150.8672,134.0391 Q151.125,134.2969 151.125,134.6406 Q151.125,134.9844 150.7813,135.3906 Q150.2813,135.9688 149.4844,136.2969 Q148.4063,136.75 147.1094,136.75 Q145.5938,136.75 144.3906,136.125 Q143.4063,135.625 142.7188,134.5547 Q142.0313,133.4844 142.0313,132.2031 L142.0313,131.0469 Q142.0313,129.7188 142.6484,128.5703 Q143.2656,127.4219 144.3594,126.8047 Q145.4531,126.1875 146.6875,126.1875 Q147.4219,126.1875 148.0703,126.3516 Q148.7188,126.5156 149.2656,126.875 Z " fill="#000000"/><text fill="#000000" font-family="sans-serif" font-size="14" lengthAdjust="spacing" textLength="42" x="160.5" y="136.7285">Сабре</text><line style="stroke:#181818;stroke-width:0.5;" x1="132.5" x2="204.5" y1="147" y2="147"/><line style="stroke:#181818;stroke-width:0.5;" x1="132.5" x2="204.5" y1="155" y2="155"/></g><!--MD5=[8565bad1bc4ff11a2c9a792681eeeb4f]
class Саид_Гафар_Оглы_Умеров--><g id="elem_Саид_Гафар_Оглы_Умеров"><rect fill="#F1F1F1" height="48" id="Саид_Гафар_Оглы_Умеров" rx="2.5" ry="2.5" style="stroke:#181818;stroke-width:0.5;" width="217" x="512" y="115"/><ellipse cx="527" cy="131" fill="#ADD1B2" rx="11" ry="11" style="stroke:#181818;stroke-width:1.0;"/><path d="M529.7656,126.875 Q529.9219,126.6563 530.1094,126.5469 Q530.2969,126.4375 530.5156,126.4375 Q530.8906,126.4375 531.125,126.6953 Q531.3594,126.9531 531.3594,127.5625 L531.3594,129.0156 Q531.3594,129.625 531.125,129.8906 Q530.8906,130.1563 530.5156,130.1563 Q530.1719,130.1563 529.9688,129.9531 Q529.7656,129.7656 529.6563,129.25 Q529.6094,128.8906 529.4219,128.7031 Q529.0938,128.3281 528.4844,128.1094 Q527.875,127.8906 527.25,127.8906 Q526.4844,127.8906 525.8516,128.2188 Q525.2188,128.5469 524.7266,129.2969 Q524.2344,130.0469 524.2344,131.0781 L524.2344,132.1719 Q524.2344,133.4063 525.125,134.2266 Q526.0156,135.0469 527.6094,135.0469 Q528.5469,135.0469 529.2031,134.7969 Q529.5938,134.6406 530.0156,134.2031 Q530.2813,133.9375 530.4297,133.8594 Q530.5781,133.7813 530.7813,133.7813 Q531.1094,133.7813 531.3672,134.0391 Q531.625,134.2969 531.625,134.6406 Q531.625,134.9844 531.2813,135.3906 Q530.7813,135.9688 529.9844,136.2969 Q528.9063,136.75 527.6094,136.75 Q526.0938,136.75 524.8906,136.125 Q523.9063,135.625 523.2188,134.5547 Q522.5313,133.4844 522.5313,132.2031 L522.5313,131.0469 Q522.5313,129.7188 523.1484,128.5703 Q523.7656,127.4219 524.8594,126.8047 Q525.9531,126.1875 527.1875,126.1875 Q527.9219,126.1875 528.5703,126.3516 Q529.2188,126.5156 529.7656,126.875 Z " fill="#000000"/><text fill="#000000" font-family="sans-serif" font-size="14" lengthAdjust="spacing" textLength="185" x="541" y="136.7285">Саид_Гафар_Оглы_Умеров</text><line style="stroke:#181818;stroke-width:0.5;" x1="513" x2="728" y1="147" y2="147"/><line style="stroke:#181818;stroke-width:0.5;" x1="513" x2="728" y1="155" y2="155"/></g><!--MD5=[0b150fb24fb95ab45441a89887810bbb]
class Вера_Николаевна_Перетягина--><g id="elem_Вера_Николаевна_Перетягина"><rect fill="#F1F1F1" height="48" id="Вера_Николаевна_Перетягина" rx="2.5" ry="2.5" style="stroke:#181818;stroke-width:0.5;" width="236" x="240.5" y="115"/><ellipse cx="255.5" cy="131" fill="#ADD1B2" rx="11" ry="11" style="stroke:#181818;stroke-width:1.0;"/><path d="M258.2656,126.875 Q258.4219,126.6563 258.6094,126.5469 Q258.7969,126.4375 259.0156,126.4375 Q259.3906,126.4375 259.625,126.6953 Q259.8594,126.9531 259.8594,127.5625 L259.8594,129.0156 Q259.8594,129.625 259.625,129.8906 Q259.3906,130.1563 259.0156,130.1563 Q258.6719,130.1563 258.4688,129.9531 Q258.2656,129.7656 258.1563,129.25 Q258.1094,128.8906 257.9219,128.7031 Q257.5938,128.3281 256.9844,128.1094 Q256.375,127.8906 255.75,127.8906 Q254.9844,127.8906 254.3516,128.2188 Q253.7188,128.5469 253.2266,129.2969 Q252.7344,130.0469 252.7344,131.0781 L252.7344,132.1719 Q252.7344,133.4063 253.625,134.2266 Q254.5156,135.0469 256.1094,135.0469 Q257.0469,135.0469 257.7031,134.7969 Q258.0938,134.6406 258.5156,134.2031 Q258.7813,133.9375 258.9297,133.8594 Q259.0781,133.7813 259.2813,133.7813 Q259.6094,133.7813 259.8672,134.0391 Q260.125,134.2969 260.125,134.6406 Q260.125,134.9844 259.7813,135.3906 Q259.2813,135.9688 258.4844,136.2969 Q257.4063,136.75 256.1094,136.75 Q254.5938,136.75 253.3906,136.125 Q252.4063,135.625 251.7188,134.5547 Q251.0313,133.4844 251.0313,132.2031 L251.0313,131.0469 Q251.0313,129.7188 251.6484,128.5703 Q252.2656,127.4219 253.3594,126.8047 Q254.4531,126.1875 255.6875,126.1875 Q256.4219,126.1875 257.0703,126.3516 Q257.7188,126.5156 258.2656,126.875 Z " fill="#000000"/><text fill="#000000" font-family="sans-serif" font-size="14" lengthAdjust="spacing" textLength="204" x="269.5" y="136.7285">Вера_Николаевна_Перетягина</text><line style="stroke:#181818;stroke-width:0.5;" x1="241.5" x2="475.5" y1="147" y2="147"/><line style="stroke:#181818;stroke-width:0.5;" x1="241.5" x2="475.5" y1="155" y2="155"/></g><!--MD5=[d5090f097b6df435ee458cd2996943e1]
class Умаров_Адиль_Саидович--><g id="elem_Умаров_Адиль_Саидович"><rect fill="#F1F1F1" height="48" id="Умаров_Адиль_Саидович" rx="2.5" ry="2.5" style="stroke:#181818;stroke-width:0.5;" width="203" x="790" y="223"/><ellipse cx="805" cy="239" fill="#ADD1B2" rx="11" ry="11" style="stroke:#181818;stroke-width:1.0;"/><path d="M807.7656,234.875 Q807.9219,234.6563 808.1094,234.5469 Q808.2969,234.4375 808.5156,234.4375 Q808.8906,234.4375 809.125,234.6953 Q809.3594,234.9531 809.3594,235.5625 L809.3594,237.0156 Q809.3594,237.625 809.125,237.8906 Q808.8906,238.1563 808.5156,238.1563 Q808.1719,238.1563 807.9688,237.9531 Q807.7656,237.7656 807.6563,237.25 Q807.6094,236.8906 807.4219,236.7031 Q807.0938,236.3281 806.4844,236.1094 Q805.875,235.8906 805.25,235.8906 Q804.4844,235.8906 803.8516,236.2188 Q803.2188,236.5469 802.7266,237.2969 Q802.2344,238.0469 802.2344,239.0781 L802.2344,240.1719 Q802.2344,241.4063 803.125,242.2266 Q804.0156,243.0469 805.6094,243.0469 Q806.5469,243.0469 807.2031,242.7969 Q807.5938,242.6406 808.0156,242.2031 Q808.2813,241.9375 808.4297,241.8594 Q808.5781,241.7813 808.7813,241.7813 Q809.1094,241.7813 809.3672,242.0391 Q809.625,242.2969 809.625,242.6406 Q809.625,242.9844 809.2813,243.3906 Q808.7813,243.9688 807.9844,244.2969 Q806.9063,244.75 805.6094,244.75 Q804.0938,244.75 802.8906,244.125 Q801.9063,243.625 801.2188,242.5547 Q800.5313,241.4844 800.5313,240.2031 L800.5313,239.0469 Q800.5313,237.7188 801.1484,236.5703 Q801.7656,235.4219 802.8594,234.8047 Q803.9531,234.1875 805.1875,234.1875 Q805.9219,234.1875 806.5703,234.3516 Q807.2188,234.5156 807.7656,234.875 Z " fill="#000000"/><text fill="#000000" font-family="sans-serif" font-size="14" lengthAdjust="spacing" textLength="171" x="819" y="244.7285">Умаров_Адиль_Саидович</text><line style="stroke:#181818;stroke-width:0.5;" x1="791" x2="992" y1="255" y2="255"/><line style="stroke:#181818;stroke-width:0.5;" x1="791" x2="992" y1="263" y2="263"/></g><!--MD5=[13b3a519a76fc97c66c2064e66081de8]
class Вощинская_Нина_Александровна--><g id="elem_Вощинская_Нина_Александровна"><rect fill="#F1F1F1" height="48" id="Вощинская_Нина_Александровна" rx="2.5" ry="2.5" style="stroke:#181818;stroke-width:0.5;" width="255" x="500" y="223"/><ellipse cx="515" cy="239" fill="#ADD1B2" rx="11" ry="11" style="stroke:#181818;stroke-width:1.0;"/><path d="M517.7656,234.875 Q517.9219,234.6563 518.1094,234.5469 Q518.2969,234.4375 518.5156,234.4375 Q518.8906,234.4375 519.125,234.6953 Q519.3594,234.9531 519.3594,235.5625 L519.3594,237.0156 Q519.3594,237.625 519.125,237.8906 Q518.8906,238.1563 518.5156,238.1563 Q518.1719,238.1563 517.9688,237.9531 Q517.7656,237.7656 517.6563,237.25 Q517.6094,236.8906 517.4219,236.7031 Q517.0938,236.3281 516.4844,236.1094 Q515.875,235.8906 515.25,235.8906 Q514.4844,235.8906 513.8516,236.2188 Q513.2188,236.5469 512.7266,237.2969 Q512.2344,238.0469 512.2344,239.0781 L512.2344,240.1719 Q512.2344,241.4063 513.125,242.2266 Q514.0156,243.0469 515.6094,243.0469 Q516.5469,243.0469 517.2031,242.7969 Q517.5938,242.6406 518.0156,242.2031 Q518.2813,241.9375 518.4297,241.8594 Q518.5781,241.7813 518.7813,241.7813 Q519.1094,241.7813 519.3672,242.0391 Q519.625,242.2969 519.625,242.6406 Q519.625,242.9844 519.2813,243.3906 Q518.7813,243.9688 517.9844,244.2969 Q516.9063,244.75 515.6094,244.75 Q514.0938,244.75 512.8906,244.125 Q511.9063,243.625 511.2188,242.5547 Q510.5313,241.4844 510.5313,240.2031 L510.5313,239.0469 Q510.5313,237.7188 511.1484,236.5703 Q511.7656,235.4219 512.8594,234.8047 Q513.9531,234.1875 515.1875,234.1875 Q515.9219,234.1875 516.5703,234.3516 Q517.2188,234.5156 517.7656,234.875 Z " fill="#000000"/><text fill="#000000" font-family="sans-serif" font-size="14" lengthAdjust="spacing" textLength="223" x="529" y="244.7285">Вощинская_Нина_Александровна</text><line style="stroke:#181818;stroke-width:0.5;" x1="501" x2="754" y1="255" y2="255"/><line style="stroke:#181818;stroke-width:0.5;" x1="501" x2="754" y1="263" y2="263"/></g><!--MD5=[0d36eeab08cd8c59f697c899f2cfa356]
class Умарова_Эльмира_Саидовна--><g id="elem_Умарова_Эльмира_Саидовна"><rect fill="#F1F1F1" height="48" id="Умарова_Эльмира_Саидовна" rx="2.5" ry="2.5" style="stroke:#181818;stroke-width:0.5;" width="231" x="234" y="223"/><ellipse cx="249" cy="239" fill="#ADD1B2" rx="11" ry="11" style="stroke:#181818;stroke-width:1.0;"/><path d="M251.7656,234.875 Q251.9219,234.6563 252.1094,234.5469 Q252.2969,234.4375 252.5156,234.4375 Q252.8906,234.4375 253.125,234.6953 Q253.3594,234.9531 253.3594,235.5625 L253.3594,237.0156 Q253.3594,237.625 253.125,237.8906 Q252.8906,238.1563 252.5156,238.1563 Q252.1719,238.1563 251.9688,237.9531 Q251.7656,237.7656 251.6563,237.25 Q251.6094,236.8906 251.4219,236.7031 Q251.0938,236.3281 250.4844,236.1094 Q249.875,235.8906 249.25,235.8906 Q248.4844,235.8906 247.8516,236.2188 Q247.2188,236.5469 246.7266,237.2969 Q246.2344,238.0469 246.2344,239.0781 L246.2344,240.1719 Q246.2344,241.4063 247.125,242.2266 Q248.0156,243.0469 249.6094,243.0469 Q250.5469,243.0469 251.2031,242.7969 Q251.5938,242.6406 252.0156,242.2031 Q252.2813,241.9375 252.4297,241.8594 Q252.5781,241.7813 252.7813,241.7813 Q253.1094,241.7813 253.3672,242.0391 Q253.625,242.2969 253.625,242.6406 Q253.625,242.9844 253.2813,243.3906 Q252.7813,243.9688 251.9844,244.2969 Q250.9063,244.75 249.6094,244.75 Q248.0938,244.75 246.8906,244.125 Q245.9063,243.625 245.2188,242.5547 Q244.5313,241.4844 244.5313,240.2031 L244.5313,239.0469 Q244.5313,237.7188 245.1484,236.5703 Q245.7656,235.4219 246.8594,234.8047 Q247.9531,234.1875 249.1875,234.1875 Q249.9219,234.1875 250.5703,234.3516 Q251.2188,234.5156 251.7656,234.875 Z " fill="#000000"/><text fill="#000000" font-family="sans-serif" font-size="14" lengthAdjust="spacing" textLength="199" x="263" y="244.7285">Умарова_Эльмира_Саидовна</text><line style="stroke:#181818;stroke-width:0.5;" x1="235" x2="464" y1="255" y2="255"/><line style="stroke:#181818;stroke-width:0.5;" x1="235" x2="464" y1="263" y2="263"/></g><!--MD5=[2324516157cecbe9c969e7c9f0d61e5e]
class Умарова_Наталья_Адильевна--><g id="elem_Умарова_Наталья_Адильевна"><rect fill="#F1F1F1" height="48" id="Умарова_Наталья_Адильевна" rx="2.5" ry="2.5" style="stroke:#181818;stroke-width:0.5;" width="234" x="774.5" y="331"/><ellipse cx="789.5" cy="347" fill="#ADD1B2" rx="11" ry="11" style="stroke:#181818;stroke-width:1.0;"/><path d="M792.2656,342.875 Q792.4219,342.6563 792.6094,342.5469 Q792.7969,342.4375 793.0156,342.4375 Q793.3906,342.4375 793.625,342.6953 Q793.8594,342.9531 793.8594,343.5625 L793.8594,345.0156 Q793.8594,345.625 793.625,345.8906 Q793.3906,346.1563 793.0156,346.1563 Q792.6719,346.1563 792.4688,345.9531 Q792.2656,345.7656 792.1563,345.25 Q792.1094,344.8906 791.9219,344.7031 Q791.5938,344.3281 790.9844,344.1094 Q790.375,343.8906 789.75,343.8906 Q788.9844,343.8906 788.3516,344.2188 Q787.7188,344.5469 787.2266,345.2969 Q786.7344,346.0469 786.7344,347.0781 L786.7344,348.1719 Q786.7344,349.4063 787.625,350.2266 Q788.5156,351.0469 790.1094,351.0469 Q791.0469,351.0469 791.7031,350.7969 Q792.0938,350.6406 792.5156,350.2031 Q792.7813,349.9375 792.9297,349.8594 Q793.0781,349.7813 793.2813,349.7813 Q793.6094,349.7813 793.8672,350.0391 Q794.125,350.2969 794.125,350.6406 Q794.125,350.9844 793.7813,351.3906 Q793.2813,351.9688 792.4844,352.2969 Q791.4063,352.75 790.1094,352.75 Q788.5938,352.75 787.3906,352.125 Q786.4063,351.625 785.7188,350.5547 Q785.0313,349.4844 785.0313,348.2031 L785.0313,347.0469 Q785.0313,345.7188 785.6484,344.5703 Q786.2656,343.4219 787.3594,342.8047 Q788.4531,342.1875 789.6875,342.1875 Q790.4219,342.1875 791.0703,342.3516 Q791.7188,342.5156 792.2656,342.875 Z " fill="#000000"/><text fill="#000000" font-family="sans-serif" font-size="14" lengthAdjust="spacing" textLength="202" x="803.5" y="352.7285">Умарова_Наталья_Адильевна</text><line style="stroke:#181818;stroke-width:0.5;" x1="775.5" x2="1007.5" y1="363" y2="363"/><line style="stroke:#181818;stroke-width:0.5;" x1="775.5" x2="1007.5" y1="371" y2="371"/></g><!--MD5=[e1c87148cf0b56c8c8640cc7856b012b]
class Пичугин_Юрий_Константинович--><g id="elem_Пичугин_Юрий_Константинович"><rect fill="#F1F1F1" height="48" id="Пичугин_Юрий_Константинович" rx="2.5" ry="2.5" style="stroke:#181818;stroke-width:0.5;" width="245" x="1044" y="331"/><ellipse cx="1059" cy="347" fill="#ADD1B2" rx="11" ry="11" style="stroke:#181818;stroke-width:1.0;"/><path d="M1061.7656,342.875 Q1061.9219,342.6563 1062.1094,342.5469 Q1062.2969,342.4375 1062.5156,342.4375 Q1062.8906,342.4375 1063.125,342.6953 Q1063.3594,342.9531 1063.3594,343.5625 L1063.3594,345.0156 Q1063.3594,345.625 1063.125,345.8906 Q1062.8906,346.1563 1062.5156,346.1563 Q1062.1719,346.1563 1061.9688,345.9531 Q1061.7656,345.7656 1061.6563,345.25 Q1061.6094,344.8906 1061.4219,344.7031 Q1061.0938,344.3281 1060.4844,344.1094 Q1059.875,343.8906 1059.25,343.8906 Q1058.4844,343.8906 1057.8516,344.2188 Q1057.2188,344.5469 1056.7266,345.2969 Q1056.2344,346.0469 1056.2344,347.0781 L1056.2344,348.1719 Q1056.2344,349.4063 1057.125,350.2266 Q1058.0156,351.0469 1059.6094,351.0469 Q1060.5469,351.0469 1061.2031,350.7969 Q1061.5938,350.6406 1062.0156,350.2031 Q1062.2813,349.9375 1062.4297,349.8594 Q1062.5781,349.7813 1062.7813,349.7813 Q1063.1094,349.7813 1063.3672,350.0391 Q1063.625,350.2969 1063.625,350.6406 Q1063.625,350.9844 1063.2813,351.3906 Q1062.7813,351.9688 1061.9844,352.2969 Q1060.9063,352.75 1059.6094,352.75 Q1058.0938,352.75 1056.8906,352.125 Q1055.9063,351.625 1055.2188,350.5547 Q1054.5313,349.4844 1054.5313,348.2031 L1054.5313,347.0469 Q1054.5313,345.7188 1055.1484,344.5703 Q1055.7656,343.4219 1056.8594,342.8047 Q1057.9531,342.1875 1059.1875,342.1875 Q1059.9219,342.1875 1060.5703,342.3516 Q1061.2188,342.5156 1061.7656,342.875 Z " fill="#000000"/><text fill="#000000" font-family="sans-serif" font-size="14" lengthAdjust="spacing" textLength="213" x="1073" y="352.7285">Пичугин_Юрий_Константинович</text><line style="stroke:#181818;stroke-width:0.5;" x1="1045" x2="1288" y1="363" y2="363"/><line style="stroke:#181818;stroke-width:0.5;" x1="1045" x2="1288" y1="371" y2="371"/></g><!--MD5=[d3d92243a0db24fb34c668e1e038c37b]
class Пичугин_Никита_Юрьевич--><g id="elem_Пичугин_Никита_Юрьевич"><rect fill="#F1F1F1" height="48" id="Пичугин_Никита_Юрьевич" rx="2.5" ry="2.5" style="stroke:#181818;stroke-width:0.5;" width="206" x="669.5" y="439"/><ellipse cx="684.5" cy="455" fill="#ADD1B2" rx="11" ry="11" style="stroke:#181818;stroke-width:1.0;"/><path d="M687.2656,450.875 Q687.4219,450.6563 687.6094,450.5469 Q687.7969,450.4375 688.0156,450.4375 Q688.3906,450.4375 688.625,450.6953 Q688.8594,450.9531 688.8594,451.5625 L688.8594,453.0156 Q688.8594,453.625 688.625,453.8906 Q688.3906,454.1563 688.0156,454.1563 Q687.6719,454.1563 687.4688,453.9531 Q687.2656,453.7656 687.1563,453.25 Q687.1094,452.8906 686.9219,452.7031 Q686.5938,452.3281 685.9844,452.1094 Q685.375,451.8906 684.75,451.8906 Q683.9844,451.8906 683.3516,452.2188 Q682.7188,452.5469 682.2266,453.2969 Q681.7344,454.0469 681.7344,455.0781 L681.7344,456.1719 Q681.7344,457.4063 682.625,458.2266 Q683.5156,459.0469 685.1094,459.0469 Q686.0469,459.0469 686.7031,458.7969 Q687.0938,458.6406 687.5156,458.2031 Q687.7813,457.9375 687.9297,457.8594 Q688.0781,457.7813 688.2813,457.7813 Q688.6094,457.7813 688.8672,458.0391 Q689.125,458.2969 689.125,458.6406 Q689.125,458.9844 688.7813,459.3906 Q688.2813,459.9688 687.4844,460.2969 Q686.4063,460.75 685.1094,460.75 Q683.5938,460.75 682.3906,460.125 Q681.4063,459.625 680.7188,458.5547 Q680.0313,457.4844 680.0313,456.2031 L680.0313,455.0469 Q680.0313,453.7188 680.6484,452.5703 Q681.2656,451.4219 682.3594,450.8047 Q683.4531,450.1875 684.6875,450.1875 Q685.4219,450.1875 686.0703,450.3516 Q686.7188,450.5156 687.2656,450.875 Z " fill="#000000"/><text fill="#000000" font-family="sans-serif" font-size="14" lengthAdjust="spacing" textLength="174" x="698.5" y="460.7285">Пичугин_Никита_Юрьевич</text><line style="stroke:#181818;stroke-width:0.5;" x1="670.5" x2="874.5" y1="471" y2="471"/><line style="stroke:#181818;stroke-width:0.5;" x1="670.5" x2="874.5" y1="479" y2="479"/></g><!--MD5=[d66fcca07d7b9c9b6e69a302bd497565]
class Пичугин_Павел_Юрьевич--><g id="elem_Пичугин_Павел_Юрьевич"><rect fill="#F1F1F1" height="48" id="Пичугин_Павел_Юрьевич" rx="2.5" ry="2.5" style="stroke:#181818;stroke-width:0.5;" width="200" x="910.5" y="439"/><ellipse cx="925.5" cy="455" fill="#ADD1B2" rx="11" ry="11" style="stroke:#181818;stroke-width:1.0;"/><path d="M928.2656,450.875 Q928.4219,450.6563 928.6094,450.5469 Q928.7969,450.4375 929.0156,450.4375 Q929.3906,450.4375 929.625,450.6953 Q929.8594,450.9531 929.8594,451.5625 L929.8594,453.0156 Q929.8594,453.625 929.625,453.8906 Q929.3906,454.1563 929.0156,454.1563 Q928.6719,454.1563 928.4688,453.9531 Q928.2656,453.7656 928.1563,453.25 Q928.1094,452.8906 927.9219,452.7031 Q927.5938,452.3281 926.9844,452.1094 Q926.375,451.8906 925.75,451.8906 Q924.9844,451.8906 924.3516,452.2188 Q923.7188,452.5469 923.2266,453.2969 Q922.7344,454.0469 922.7344,455.0781 L922.7344,456.1719 Q922.7344,457.4063 923.625,458.2266 Q924.5156,459.0469 926.1094,459.0469 Q927.0469,459.0469 927.7031,458.7969 Q928.0938,458.6406 928.5156,458.2031 Q928.7813,457.9375 928.9297,457.8594 Q929.0781,457.7813 929.2813,457.7813 Q929.6094,457.7813 929.8672,458.0391 Q930.125,458.2969 930.125,458.6406 Q930.125,458.9844 929.7813,459.3906 Q929.2813,459.9688 928.4844,460.2969 Q927.4063,460.75 926.1094,460.75 Q924.5938,460.75 923.3906,460.125 Q922.4063,459.625 921.7188,458.5547 Q921.0313,457.4844 921.0313,456.2031 L921.0313,455.0469 Q921.0313,453.7188 921.6484,452.5703 Q922.2656,451.4219 923.3594,450.8047 Q924.4531,450.1875 925.6875,450.1875 Q926.4219,450.1875 927.0703,450.3516 Q927.7188,450.5156 928.2656,450.875 Z " fill="#000000"/><text fill="#000000" font-family="sans-serif" font-size="14" lengthAdjust="spacing" textLength="168" x="939.5" y="460.7285">Пичугин_Павел_Юрьевич</text><line style="stroke:#181818;stroke-width:0.5;" x1="911.5" x2="1109.5" y1="471" y2="471"/><line style="stroke:#181818;stroke-width:0.5;" x1="911.5" x2="1109.5" y1="479" y2="479"/></g><!--MD5=[8d8b52ff24fa468f2f71a6e4cd259c5c]
reverse link Гафар_Умеров to Гюльзар--><g id="link_Гафар_Умеров_Гюльзар"><path codeLine="1" d="M128.13,68.57 C111.26,83.86 92.15,101.17 77.24,114.68 " fill="none" id="Гафар_Умеров-backto-Гюльзар" style="stroke:#181818;stroke-width:1.0;"/><polygon fill="none" points="123.59,63.24,143.11,55,132.99,73.62,123.59,63.24" style="stroke:#181818;stroke-width:1.0;"/></g><!--MD5=[af2b779cff3cfa623225420b6d814c83]
reverse link Гафар_Умеров to Сабре--><g id="link_Гафар_Умеров_Сабре"><path codeLine="2" d="M168.5,75.02 C168.5,88.58 168.5,103.04 168.5,114.68 " fill="none" id="Гафар_Умеров-backto-Сабре" style="stroke:#181818;stroke-width:1.0;"/><polygon fill="none" points="161.5,75,168.5,55,175.5,75,161.5,75" style="stroke:#181818;stroke-width:1.0;"/></g><!--MD5=[00ee66789e993d68f9934cbe21385e90]
reverse link Гафар_Умеров to Саид_Гафар_Оглы_Умеров--><g id="link_Гафар_Умеров_Саид_Гафар_Оглы_Умеров"><path codeLine="4" d="M254.77,52.23 C331.1,70.13 442.43,96.24 522.18,114.94 " fill="none" id="Гафар_Умеров-backto-Саид_Гафар_Оглы_Умеров" style="stroke:#181818;stroke-width:1.0;"/><polygon fill="none" points="253.07,59.02,235.19,47.64,256.26,45.39,253.07,59.02" style="stroke:#181818;stroke-width:1.0;"/></g><!--MD5=[3c12d9bcc422f8d97c18a7c51c56cbd7]
link Вера_Николаевна_Перетягина to Саид_Гафар_Оглы_Умеров--><g id="link_Вера_Николаевна_Перетягина_Саид_Гафар_Оглы_Умеров"><path codeLine="5" d="M476.71,139 C486.67,139 496.64,139 506.6,139 " fill="none" id="Вера_Николаевна_Перетягина-to-Саид_Гафар_Оглы_Умеров" style="stroke:#181818;stroke-width:1.0;"/><polygon fill="#181818" points="511.81,139,502.81,135,506.81,139,502.81,143,511.81,139" style="stroke:#181818;stroke-width:1.0;"/></g><!--MD5=[600bc25c282f2172e33cc6efcefb92ad]
reverse link Саид_Гафар_Оглы_Умеров to Умаров_Адиль_Саидович--><g id="link_Саид_Гафар_Оглы_Умеров_Умаров_Адиль_Саидович"><path codeLine="9" d="M698.17,170.38 C740.87,187.08 792.98,207.47 832.34,222.86 " fill="none" id="Саид_Гафар_Оглы_Умеров-backto-Умаров_Адиль_Саидович" style="stroke:#181818;stroke-width:1.0;"/><polygon fill="none" points="695.38,176.8,679.3,163,700.48,163.77,695.38,176.8" style="stroke:#181818;stroke-width:1.0;"/></g><!--MD5=[ce9d4dfa6cd61f625fb331f3ffa2ca53]
link Вощинская_Нина_Александровна to Умаров_Адиль_Саидович--><g id="link_Вощинская_Нина_Александровна_Умаров_Адиль_Саидович"><path codeLine="10" d="M755.12,247 C764.95,247 774.78,247 784.61,247 " fill="none" id="Вощинская_Нина_Александровна-to-Умаров_Адиль_Саидович" style="stroke:#181818;stroke-width:1.0;"/><polygon fill="#181818" points="789.75,247,780.75,243,784.75,247,780.75,251,789.75,247" style="stroke:#181818;stroke-width:1.0;"/></g><!--MD5=[f62b96b0a58e7520f2601704a9f15090]
reverse link Саид_Гафар_Оглы_Умеров to Умарова_Эльмира_Саидовна--><g id="link_Саид_Гафар_Оглы_Умеров_Умарова_Эльмира_Саидовна"><path codeLine="11" d="M542.83,170.38 C500.13,187.08 448.02,207.47 408.66,222.86 " fill="none" id="Саид_Гафар_Оглы_Умеров-backto-Умарова_Эльмира_Саидовна" style="stroke:#181818;stroke-width:1.0;"/><polygon fill="none" points="540.52,163.77,561.7,163,545.62,176.8,540.52,163.77" style="stroke:#181818;stroke-width:1.0;"/></g><!--MD5=[b40d64c381ebbce260a31faaa06eb1c9]
reverse link Умаров_Адиль_Саидович to Умарова_Наталья_Адильевна--><g id="link_Умаров_Адиль_Саидович_Умарова_Наталья_Адильевна"><path codeLine="14" d="M891.5,291.02 C891.5,304.58 891.5,319.04 891.5,330.68 " fill="none" id="Умаров_Адиль_Саидович-backto-Умарова_Наталья_Адильевна" style="stroke:#181818;stroke-width:1.0;"/><polygon fill="none" points="884.5,291,891.5,271,898.5,291,884.5,291" style="stroke:#181818;stroke-width:1.0;"/></g><!--MD5=[1cb82372cf63e849e5ce16882ccf2cbb]
reverse link Умарова_Наталья_Адильевна to Пичугин_Юрий_Константинович--><g id="link_Умарова_Наталья_Адильевна_Пичугин_Юрий_Константинович"><path codeLine="15" d="M1013.81,355 C1023.79,355 1033.77,355 1043.75,355 " fill="none" id="Умарова_Наталья_Адильевна-backto-Пичугин_Юрий_Константинович" style="stroke:#181818;stroke-width:1.0;"/><polygon fill="#181818" points="1008.59,355,1017.59,359,1013.59,355,1017.59,351,1008.59,355" style="stroke:#181818;stroke-width:1.0;"/></g><!--MD5=[8c8b15aad6e7d73c36f51ca7ed7b9e0f]
reverse link Умарова_Наталья_Адильевна to Пичугин_Никита_Юрьевич--><g id="link_Умарова_Наталья_Адильевна_Пичугин_Никита_Юрьевич"><path codeLine="17" d="M850.71,392.34 C833.48,407.68 813.93,425.1 798.68,438.68 " fill="none" id="Умарова_Наталья_Адильевна-backto-Пичугин_Никита_Юрьевич" style="stroke:#181818;stroke-width:1.0;"/><polygon fill="none" points="846.09,387.08,865.68,379,855.4,397.53,846.09,387.08" style="stroke:#181818;stroke-width:1.0;"/></g><!--MD5=[6d5c70ae6f0312f264562c7da8435564]
reverse link Умарова_Наталья_Адильевна to Пичугин_Павел_Юрьевич--><g id="link_Умарова_Наталья_Адильевна_Пичугин_Павел_Юрьевич"><path codeLine="18" d="M932.29,392.34 C949.52,407.68 969.07,425.1 984.32,438.68 " fill="none" id="Умарова_Наталья_Адильевна-backto-Пичугин_Павел_Юрьевич" style="stroke:#181818;stroke-width:1.0;"/><polygon fill="none" points="927.6,397.53,917.32,379,936.91,387.08,927.6,397.53" style="stroke:#181818;stroke-width:1.0;"/></g><!--MD5=[0b458f611ad6a08d0bc98ebc4b494702]
@startuml
Гюльзар -up-|> Гафар_Умеров
Сабре -up-|> Гафар_Умеров

Саид_Гафар_Оглы_Умеров -up-|> Гафар_Умеров
    Вера_Николаевна_Перетягина -right-> Саид_Гафар_Оглы_Умеров



Умаров_Адиль_Саидович -up-|> Саид_Гафар_Оглы_Умеров
    Вощинская_Нина_Александровна -right-> Умаров_Адиль_Саидович
Умарова_Эльмира_Саидовна -up-|> Саид_Гафар_Оглы_Умеров


Умарова_Наталья_Адильевна -up-|> Умаров_Адиль_Саидович
Пичугин_Юрий_Константинович -left-> Умарова_Наталья_Адильевна

Пичугин_Никита_Юрьевич -up-|> Умарова_Наталья_Адильевна
Пичугин_Павел_Юрьевич -up-|> Умарова_Наталья_Адильевна
@enduml

PlantUML version 1.2022.7(Mon Aug 22 20:01:30 MSK 2022)
(GPL source distribution)
Java Runtime: Java(TM) SE Runtime Environment
JVM: Java HotSpot(TM) 64-Bit Server VM
Default Encoding: Cp1251
Language: en
Country: US
--></g></svg>