<?xml version="1.0" encoding="UTF-8" standalone="no"?><svg xmlns="http://www.w3.org/2000/svg" xmlns:xlink="http://www.w3.org/1999/xlink" contentStyleType="text/css" height="876px" preserveAspectRatio="none" style="width:1411px;height:876px;background:#FFFFFF;" version="1.1" viewBox="0 0 1411 876" width="1411px" zoomAndPan="magnify"><defs/><g><!--MD5=[28473d5ca736062b11a0126d7c690b40]
class Гафар_Умеров--><g id="elem_Гафар_Умеров"><rect codeLine="1" fill="#F1F1F1" height="417.7969" id="Гафар_Умеров" rx="2.5" ry="2.5" style="stroke:#181818;stroke-width:0.5;" width="1397" x="7" y="7"/><ellipse cx="650.75" cy="23" fill="#ADD1B2" rx="11" ry="11" style="stroke:#181818;stroke-width:1.0;"/><path d="M653.5156,18.875 Q653.6719,18.6563 653.8594,18.5469 Q654.0469,18.4375 654.2656,18.4375 Q654.6406,18.4375 654.875,18.6953 Q655.1094,18.9531 655.1094,19.5625 L655.1094,21.0156 Q655.1094,21.625 654.875,21.8906 Q654.6406,22.1563 654.2656,22.1563 Q653.9219,22.1563 653.7188,21.9531 Q653.5156,21.7656 653.4063,21.25 Q653.3594,20.8906 653.1719,20.7031 Q652.8438,20.3281 652.2344,20.1094 Q651.625,19.8906 651,19.8906 Q650.2344,19.8906 649.6016,20.2188 Q648.9688,20.5469 648.4766,21.2969 Q647.9844,22.0469 647.9844,23.0781 L647.9844,24.1719 Q647.9844,25.4063 648.875,26.2266 Q649.7656,27.0469 651.3594,27.0469 Q652.2969,27.0469 652.9531,26.7969 Q653.3438,26.6406 653.7656,26.2031 Q654.0313,25.9375 654.1797,25.8594 Q654.3281,25.7813 654.5313,25.7813 Q654.8594,25.7813 655.1172,26.0391 Q655.375,26.2969 655.375,26.6406 Q655.375,26.9844 655.0313,27.3906 Q654.5313,27.9688 653.7344,28.2969 Q652.6563,28.75 651.3594,28.75 Q649.8438,28.75 648.6406,28.125 Q647.6563,27.625 646.9688,26.5547 Q646.2813,25.4844 646.2813,24.2031 L646.2813,23.0469 Q646.2813,21.7188 646.8984,20.5703 Q647.5156,19.4219 648.6094,18.8047 Q649.7031,18.1875 650.9375,18.1875 Q651.6719,18.1875 652.3203,18.3516 Q652.9688,18.5156 653.5156,18.875 Z " fill="#000000"/><text fill="#000000" font-family="sans-serif" font-size="14" lengthAdjust="spacing" textLength="101" x="671.25" y="28.7285">Гафар_Умеров</text><line style="stroke:#181818;stroke-width:0.5;" x1="8" x2="1403" y1="39" y2="39"/><text fill="#000000" font-family="sans-serif" font-size="14" lengthAdjust="spacing" textLength="425" x="27" y="57.5332">возможно Умяров Кафар, жил в алупке или алуште в кипричном</text><text fill="#000000" font-family="sans-serif" font-size="14" lengthAdjust="spacing" textLength="223" x="27" y="75.1426">2-х этажном доме на набережной</text><text fill="#000000" font-family="sans-serif" font-size="14" lengthAdjust="spacing" textLength="185" x="27" y="92.752">учился в спб на факультете</text><text fill="#000000" font-family="sans-serif" font-size="14" lengthAdjust="spacing" textLength="223" x="27" y="110.3613">естественных наук до революции</text><rect fill="none" height="6" style="stroke:#C82930;stroke-width:1.0;" width="6" x="15" y="120.7422"/><text fill="#000000" font-family="sans-serif" font-size="14" lengthAdjust="spacing" textLength="92" x="27" y="127.9707">конец 19 века</text><text fill="#000000" font-family="sans-serif" font-size="14" lengthAdjust="spacing" textLength="166" x="27" y="145.5801">Красный террор в Крыму</text><text fill="#000000" font-family="sans-serif" font-size="14" lengthAdjust="spacing" textLength="376" x="27" y="163.1895">умер при пересылке в казахстан после 2 мировой войны</text><text fill="#000000" font-family="sans-serif" font-size="14" lengthAdjust="spacing" textLength="4" x="27" y="180.7988"> </text><text fill="#000000" font-family="sans-serif" font-size="14" lengthAdjust="spacing" textLength="387" x="27" y="198.4082">в крыму родился в богатой семье, алушта, любил женщин</text><text fill="#000000" font-family="sans-serif" font-size="14" lengthAdjust="spacing" textLength="4" x="27" y="216.0176"> </text><text fill="#000000" font-family="sans-serif" font-size="14" lengthAdjust="spacing" textLength="245" x="27" y="233.627">они были виноделами и торговцами.</text><text fill="#000000" font-family="sans-serif" font-size="14" lengthAdjust="spacing" textLength="4" x="27" y="251.2363"> </text><text fill="#000000" font-family="sans-serif" font-size="14" lengthAdjust="spacing" textLength="214" x="27" y="268.8457">Вероятно, один из этих человек:</text><text fill="#000000" font-family="sans-serif" font-size="14" lengthAdjust="spacing" textLength="4" x="27" y="286.4551"> </text><text fill="#000000" font-family="sans-serif" font-size="14" lengthAdjust="spacing" textLength="134" x="27" y="304.0645">Возможно, его брат:</text><line style="stroke:#181818;stroke-width:0.5;" x1="8" x2="1403" y1="311.1406" y2="311.1406"/><text fill="#000000" font-family="sans-serif" font-size="14" lengthAdjust="spacing" textLength="340" x="13" y="329.6738">пережил Массовый террор в Крыму (1917—1918) и</text><text fill="#000000" font-family="sans-serif" font-size="14" lengthAdjust="spacing" textLength="385" x="13" y="347.2832">дружил с художником Николаем Ге (который был в крыму)</text><text fill="#000000" font-family="sans-serif" font-size="14" lengthAdjust="spacing" textLength="590" x="13" y="364.8926">у Кафара было 3 дома и басеин(и пруд) и индюшка, маленький Саид ездил на индюшке.</text><text fill="#000000" font-family="sans-serif" font-size="14" lengthAdjust="spacing" textLength="845" x="13" y="382.502">https://ru.openlist.wiki/%D0%A3%D0%BC%D0%B5%D1%80%D0%BE%D0%B2_%D0%93%D0%B0%D1%84%D0%B0%D1%80_(1863)</text><text fill="#000000" font-family="sans-serif" font-size="14" lengthAdjust="spacing" textLength="1206" x="13" y="400.1113">https://ru.openlist.wiki/%D0%A3%D0%BC%D0%B5%D1%80%D0%BE%D0%B2_%D0%90%D0%B1%D0%B4%D1%83%D0%BB%D0%B0_%D0%93%D0%B0%D1%84%D0%B0%D1%80_(1877)</text><text fill="#000000" font-family="sans-serif" font-size="14" lengthAdjust="spacing" textLength="1385" x="13" y="417.7207">https://ru.openlist.wiki/%D0%A3%D0%BC%D0%B5%D1%80%D0%BE%D0%B2_%D0%9C%D0%B0%D0%BC%D1%83%D1%82_%D0%93%D0%B0%D1%84%D0%B0%D1%80%D0%BE%D0%B2%D0%B8%D1%87_(1892)</text></g><!--MD5=[8565bad1bc4ff11a2c9a792681eeeb4f]
class Саид_Гафар_Оглы_Умеров--><g id="elem_Саид_Гафар_Оглы_Умеров"><rect codeLine="26" fill="#F1F1F1" height="259.3125" id="Саид_Гафар_Оглы_Умеров" rx="2.5" ry="2.5" style="stroke:#181818;stroke-width:0.5;" width="537" x="437" y="485"/><ellipse cx="608.75" cy="501" fill="#ADD1B2" rx="11" ry="11" style="stroke:#181818;stroke-width:1.0;"/><path d="M611.5156,496.875 Q611.6719,496.6563 611.8594,496.5469 Q612.0469,496.4375 612.2656,496.4375 Q612.6406,496.4375 612.875,496.6953 Q613.1094,496.9531 613.1094,497.5625 L613.1094,499.0156 Q613.1094,499.625 612.875,499.8906 Q612.6406,500.1563 612.2656,500.1563 Q611.9219,500.1563 611.7188,499.9531 Q611.5156,499.7656 611.4063,499.25 Q611.3594,498.8906 611.1719,498.7031 Q610.8438,498.3281 610.2344,498.1094 Q609.625,497.8906 609,497.8906 Q608.2344,497.8906 607.6016,498.2188 Q606.9688,498.5469 606.4766,499.2969 Q605.9844,500.0469 605.9844,501.0781 L605.9844,502.1719 Q605.9844,503.4063 606.875,504.2266 Q607.7656,505.0469 609.3594,505.0469 Q610.2969,505.0469 610.9531,504.7969 Q611.3438,504.6406 611.7656,504.2031 Q612.0313,503.9375 612.1797,503.8594 Q612.3281,503.7813 612.5313,503.7813 Q612.8594,503.7813 613.1172,504.0391 Q613.375,504.2969 613.375,504.6406 Q613.375,504.9844 613.0313,505.3906 Q612.5313,505.9688 611.7344,506.2969 Q610.6563,506.75 609.3594,506.75 Q607.8438,506.75 606.6406,506.125 Q605.6563,505.625 604.9688,504.5547 Q604.2813,503.4844 604.2813,502.2031 L604.2813,501.0469 Q604.2813,499.7188 604.8984,498.5703 Q605.5156,497.4219 606.6094,496.8047 Q607.7031,496.1875 608.9375,496.1875 Q609.6719,496.1875 610.3203,496.3516 Q610.9688,496.5156 611.5156,496.875 Z " fill="#000000"/><text fill="#000000" font-family="sans-serif" font-size="14" lengthAdjust="spacing" textLength="185" x="629.25" y="506.7285">Саид_Гафар_Оглы_Умеров</text><line style="stroke:#181818;stroke-width:0.5;" x1="438" x2="973" y1="517" y2="517"/><text fill="#000000" font-family="sans-serif" font-size="14" lengthAdjust="spacing" textLength="185" x="443" y="535.5332">возможно Сеит Ахмед Умер</text><text fill="#000000" font-family="sans-serif" font-size="14" lengthAdjust="spacing" textLength="376" x="443" y="553.1426">сестра жила в ташкенте, ее вывезли из крыма в ташкент</text><text fill="#000000" font-family="sans-serif" font-size="14" lengthAdjust="spacing" textLength="155" x="443" y="570.752">дед Саид боялся татар</text><text fill="#000000" font-family="sans-serif" font-size="14" lengthAdjust="spacing" textLength="217" x="443" y="588.3613">потом дали квартиру на 3 семьи</text><text fill="#000000" font-family="sans-serif" font-size="14" lengthAdjust="spacing" textLength="421" x="443" y="605.9707">Саид хотел поплыть на корыте, и его за это хотели отдубасить</text><text fill="#000000" font-family="sans-serif" font-size="14" lengthAdjust="spacing" textLength="168" x="443" y="623.5801">не любил врачей и балет</text><text fill="#000000" font-family="sans-serif" font-size="14" lengthAdjust="spacing" textLength="272" x="443" y="641.1895">Умел жарить чебурки, и любил готовить.</text><text fill="#000000" font-family="sans-serif" font-size="14" lengthAdjust="spacing" textLength="525" x="443" y="658.7988">Приезжал в Коломну к Адилю Саидовичу и они вместе ходили в лес за грибами</text><text fill="#000000" font-family="sans-serif" font-size="14" lengthAdjust="spacing" textLength="412" x="443" y="676.4082">Дед саид приехал в баку учиться в политехничеком институте</text><text fill="#000000" font-family="sans-serif" font-size="14" lengthAdjust="spacing" textLength="437" x="443" y="694.0176">жил в семинарии при мечете, в санатории познакомился с верой,</text><line style="stroke:#181818;stroke-width:0.5;" x1="438" x2="973" y1="701.0938" y2="701.0938"/><text fill="#000000" font-family="sans-serif" font-size="14" lengthAdjust="spacing" textLength="310" x="443" y="719.627">Гюльзар(не было детей) и Сабре(двое детей),</text><text fill="#000000" font-family="sans-serif" font-size="14" lengthAdjust="spacing" textLength="467" x="443" y="737.2363">и не оказывал им гостеприимтсва (сёстрам). жили сначала в подвале,</text></g><!--MD5=[0b150fb24fb95ab45441a89887810bbb]
class Вера_Николаевна_Перетягина--><g id="elem_Вера_Николаевна_Перетягина"><rect codeLine="43" fill="#F1F1F1" height="48" id="Вера_Николаевна_Перетягина" rx="2.5" ry="2.5" style="stroke:#181818;stroke-width:0.5;" width="236" x="1009.5" y="590.5"/><ellipse cx="1024.5" cy="606.5" fill="#ADD1B2" rx="11" ry="11" style="stroke:#181818;stroke-width:1.0;"/><path d="M1027.2656,602.375 Q1027.4219,602.1563 1027.6094,602.0469 Q1027.7969,601.9375 1028.0156,601.9375 Q1028.3906,601.9375 1028.625,602.1953 Q1028.8594,602.4531 1028.8594,603.0625 L1028.8594,604.5156 Q1028.8594,605.125 1028.625,605.3906 Q1028.3906,605.6563 1028.0156,605.6563 Q1027.6719,605.6563 1027.4688,605.4531 Q1027.2656,605.2656 1027.1563,604.75 Q1027.1094,604.3906 1026.9219,604.2031 Q1026.5938,603.8281 1025.9844,603.6094 Q1025.375,603.3906 1024.75,603.3906 Q1023.9844,603.3906 1023.3516,603.7188 Q1022.7188,604.0469 1022.2266,604.7969 Q1021.7344,605.5469 1021.7344,606.5781 L1021.7344,607.6719 Q1021.7344,608.9063 1022.625,609.7266 Q1023.5156,610.5469 1025.1094,610.5469 Q1026.0469,610.5469 1026.7031,610.2969 Q1027.0938,610.1406 1027.5156,609.7031 Q1027.7813,609.4375 1027.9297,609.3594 Q1028.0781,609.2813 1028.2813,609.2813 Q1028.6094,609.2813 1028.8672,609.5391 Q1029.125,609.7969 1029.125,610.1406 Q1029.125,610.4844 1028.7813,610.8906 Q1028.2813,611.4688 1027.4844,611.7969 Q1026.4063,612.25 1025.1094,612.25 Q1023.5938,612.25 1022.3906,611.625 Q1021.4063,611.125 1020.7188,610.0547 Q1020.0313,608.9844 1020.0313,607.7031 L1020.0313,606.5469 Q1020.0313,605.2188 1020.6484,604.0703 Q1021.2656,602.9219 1022.3594,602.3047 Q1023.4531,601.6875 1024.6875,601.6875 Q1025.4219,601.6875 1026.0703,601.8516 Q1026.7188,602.0156 1027.2656,602.375 Z " fill="#000000"/><text fill="#000000" font-family="sans-serif" font-size="14" lengthAdjust="spacing" textLength="204" x="1038.5" y="612.2285">Вера_Николаевна_Перетягина</text><line style="stroke:#181818;stroke-width:0.5;" x1="1010.5" x2="1244.5" y1="622.5" y2="622.5"/><line style="stroke:#181818;stroke-width:0.5;" x1="1010.5" x2="1244.5" y1="630.5" y2="630.5"/></g><!--MD5=[d5090f097b6df435ee458cd2996943e1]
class Умаров_Адиль_Саидович--><g id="elem_Умаров_Адиль_Саидович"><rect codeLine="48" fill="#F1F1F1" height="65.6094" id="Умаров_Адиль_Саидович" rx="2.5" ry="2.5" style="stroke:#181818;stroke-width:0.5;" width="549" x="215" y="804"/><ellipse cx="399.75" cy="820" fill="#ADD1B2" rx="11" ry="11" style="stroke:#181818;stroke-width:1.0;"/><path d="M402.5156,815.875 Q402.6719,815.6563 402.8594,815.5469 Q403.0469,815.4375 403.2656,815.4375 Q403.6406,815.4375 403.875,815.6953 Q404.1094,815.9531 404.1094,816.5625 L404.1094,818.0156 Q404.1094,818.625 403.875,818.8906 Q403.6406,819.1563 403.2656,819.1563 Q402.9219,819.1563 402.7188,818.9531 Q402.5156,818.7656 402.4063,818.25 Q402.3594,817.8906 402.1719,817.7031 Q401.8438,817.3281 401.2344,817.1094 Q400.625,816.8906 400,816.8906 Q399.2344,816.8906 398.6016,817.2188 Q397.9688,817.5469 397.4766,818.2969 Q396.9844,819.0469 396.9844,820.0781 L396.9844,821.1719 Q396.9844,822.4063 397.875,823.2266 Q398.7656,824.0469 400.3594,824.0469 Q401.2969,824.0469 401.9531,823.7969 Q402.3438,823.6406 402.7656,823.2031 Q403.0313,822.9375 403.1797,822.8594 Q403.3281,822.7813 403.5313,822.7813 Q403.8594,822.7813 404.1172,823.0391 Q404.375,823.2969 404.375,823.6406 Q404.375,823.9844 404.0313,824.3906 Q403.5313,824.9688 402.7344,825.2969 Q401.6563,825.75 400.3594,825.75 Q398.8438,825.75 397.6406,825.125 Q396.6563,824.625 395.9688,823.5547 Q395.2813,822.4844 395.2813,821.2031 L395.2813,820.0469 Q395.2813,818.7188 395.8984,817.5703 Q396.5156,816.4219 397.6094,815.8047 Q398.7031,815.1875 399.9375,815.1875 Q400.6719,815.1875 401.3203,815.3516 Q401.9688,815.5156 402.5156,815.875 Z " fill="#000000"/><text fill="#000000" font-family="sans-serif" font-size="14" lengthAdjust="spacing" textLength="171" x="420.25" y="825.7285">Умаров_Адиль_Саидович</text><line style="stroke:#181818;stroke-width:0.5;" x1="216" x2="763" y1="836" y2="836"/><text fill="#000000" font-family="sans-serif" font-size="14" lengthAdjust="spacing" textLength="537" x="221" y="854.5332">Закончил школу в Баку и уехал учиться в ленинградский политехнический инстут</text><line style="stroke:#181818;stroke-width:0.5;" x1="216" x2="763" y1="861.6094" y2="861.6094"/></g><!--MD5=[1308ef7ebeaecfe79b928675177db9bc]
class Эльмира_Яхья_Заде_Саидовна--><g id="elem_Эльмира_Яхья_Заде_Саидовна"><rect codeLine="53" fill="#F1F1F1" height="48" id="Эльмира_Яхья_Заде_Саидовна" rx="2.5" ry="2.5" style="stroke:#181818;stroke-width:0.5;" width="245" x="799" y="813"/><ellipse cx="814" cy="829" fill="#ADD1B2" rx="11" ry="11" style="stroke:#181818;stroke-width:1.0;"/><path d="M816.7656,824.875 Q816.9219,824.6563 817.1094,824.5469 Q817.2969,824.4375 817.5156,824.4375 Q817.8906,824.4375 818.125,824.6953 Q818.3594,824.9531 818.3594,825.5625 L818.3594,827.0156 Q818.3594,827.625 818.125,827.8906 Q817.8906,828.1563 817.5156,828.1563 Q817.1719,828.1563 816.9688,827.9531 Q816.7656,827.7656 816.6563,827.25 Q816.6094,826.8906 816.4219,826.7031 Q816.0938,826.3281 815.4844,826.1094 Q814.875,825.8906 814.25,825.8906 Q813.4844,825.8906 812.8516,826.2188 Q812.2188,826.5469 811.7266,827.2969 Q811.2344,828.0469 811.2344,829.0781 L811.2344,830.1719 Q811.2344,831.4063 812.125,832.2266 Q813.0156,833.0469 814.6094,833.0469 Q815.5469,833.0469 816.2031,832.7969 Q816.5938,832.6406 817.0156,832.2031 Q817.2813,831.9375 817.4297,831.8594 Q817.5781,831.7813 817.7813,831.7813 Q818.1094,831.7813 818.3672,832.0391 Q818.625,832.2969 818.625,832.6406 Q818.625,832.9844 818.2813,833.3906 Q817.7813,833.9688 816.9844,834.2969 Q815.9063,834.75 814.6094,834.75 Q813.0938,834.75 811.8906,834.125 Q810.9063,833.625 810.2188,832.5547 Q809.5313,831.4844 809.5313,830.2031 L809.5313,829.0469 Q809.5313,827.7188 810.1484,826.5703 Q810.7656,825.4219 811.8594,824.8047 Q812.9531,824.1875 814.1875,824.1875 Q814.9219,824.1875 815.5703,824.3516 Q816.2188,824.5156 816.7656,824.875 Z " fill="#000000"/><text fill="#000000" font-family="sans-serif" font-size="14" lengthAdjust="spacing" textLength="213" x="828" y="834.7285">Эльмира_Яхья_Заде_Саидовна</text><line style="stroke:#181818;stroke-width:0.5;" x1="800" x2="1043" y1="845" y2="845"/><line style="stroke:#181818;stroke-width:0.5;" x1="800" x2="1043" y1="853" y2="853"/></g><!--MD5=[00ee66789e993d68f9934cbe21385e90]
reverse link Гафар_Умеров to Саид_Гафар_Оглы_Умеров--><g id="link_Гафар_Умеров_Саид_Гафар_Оглы_Умеров"><path codeLine="25" d="M705.5,445.58 C705.5,458.99 705.5,472.2 705.5,484.98 " fill="none" id="Гафар_Умеров-backto-Саид_Гафар_Оглы_Умеров" style="stroke:#181818;stroke-width:1.0;"/><polygon fill="none" points="698.5,445.12,705.5,425.12,712.5,445.12,698.5,445.12" style="stroke:#181818;stroke-width:1.0;"/></g><!--MD5=[11764d78fc9ad4cbcd3259f0f1135be0]
reverse link Саид_Гафар_Оглы_Умеров to Вера_Николаевна_Перетягина--><g id="link_Саид_Гафар_Оглы_Умеров_Вера_Николаевна_Перетягина"><path codeLine="42" d="M979.4,614.5 C989.34,614.5 999.28,614.5 1009.23,614.5 " fill="none" id="Саид_Гафар_Оглы_Умеров-backto-Вера_Николаевна_Перетягина" style="stroke:#181818;stroke-width:1.0;"/><polygon fill="#181818" points="974.2,614.5,983.2,618.5,979.2,614.5,983.2,610.5,974.2,614.5" style="stroke:#181818;stroke-width:1.0;"/></g><!--MD5=[600bc25c282f2172e33cc6efcefb92ad]
reverse link Саид_Гафар_Оглы_Умеров to Умаров_Адиль_Саидович--><g id="link_Саид_Гафар_Оглы_Умеров_Умаров_Адиль_Саидович"><path codeLine="47" d="M565.51,758.41 C549.06,775.2 533.7,790.88 521.15,803.69 " fill="none" id="Саид_Гафар_Оглы_Умеров-backto-Умаров_Адиль_Саидович" style="stroke:#181818;stroke-width:1.0;"/><polygon fill="none" points="560.54,753.47,579.54,744.08,570.54,763.27,560.54,753.47" style="stroke:#181818;stroke-width:1.0;"/></g><!--MD5=[53be0c653955719388b925c99c38ee56]
reverse link Саид_Гафар_Оглы_Умеров to Эльмира_Яхья_Заде_Саидовна--><g id="link_Саид_Гафар_Оглы_Умеров_Эльмира_Яхья_Заде_Саидовна"><path codeLine="52" d="M845.55,758.47 C866.12,779.46 884.98,798.72 898.76,812.78 " fill="none" id="Саид_Гафар_Оглы_Умеров-backto-Эльмира_Яхья_Заде_Саидовна" style="stroke:#181818;stroke-width:1.0;"/><polygon fill="none" points="840.46,763.27,831.46,744.08,850.46,753.47,840.46,763.27" style="stroke:#181818;stroke-width:1.0;"/></g><!--MD5=[7555c0560982da6b0e22165c8da7cb49]
@startuml
class Гафар_Умеров{
    возможно Умяров Кафар, жил в алупке или алуште в кипричном 
    2-х этажном доме на набережной
    учился в спб на факультете 
    естественных наук до революции
    - конец 19 века
    пережил Массовый террор в Крыму (1917—1918) и
    Красный террор в Крыму
    дружил с художником Николаем Ге (который был в крыму)
    умер при пересылке в казахстан после 2 мировой войны

    в крыму родился в богатой семье, алушта, любил женщин

    у Кафара было 3 дома и басеин(и пруд) и индюшка, маленький Саид ездил на индюшке.
    они были виноделами и торговцами.

    Вероятно, один из этих человек:
    https://ru.openlist.wiki/%D0%A3%D0%BC%D0%B5%D1%80%D0%BE%D0%B2_%D0%93%D0%B0%D1%84%D0%B0%D1%80_(1863)
    https://ru.openlist.wiki/%D0%A3%D0%BC%D0%B5%D1%80%D0%BE%D0%B2_%D0%90%D0%B1%D0%B4%D1%83%D0%BB%D0%B0_%D0%93%D0%B0%D1%84%D0%B0%D1%80_(1877)
    
    Возможно, его брат:
    https://ru.openlist.wiki/%D0%A3%D0%BC%D0%B5%D1%80%D0%BE%D0%B2_%D0%9C%D0%B0%D0%BC%D1%83%D1%82_%D0%93%D0%B0%D1%84%D0%B0%D1%80%D0%BE%D0%B2%D0%B8%D1%87_(1892)
}

Саид_Гафар_Оглы_Умеров -up-|> Гафар_Умеров
class Саид_Гафар_Оглы_Умеров{
    возможно Сеит Ахмед Умер
    сестра жила в ташкенте, ее вывезли из крыма в ташкент
    Гюльзар(не было детей) и Сабре(двое детей),
    дед Саид боялся татар
    и не оказывал им гостеприимтсва (сёстрам). жили сначала в подвале,
    потом дали квартиру на 3 семьи
    Саид хотел поплыть на корыте, и его за это хотели отдубасить
    не любил врачей и балет
    Умел жарить чебурки, и любил готовить. 
    Приезжал в Коломну к Адилю Саидовичу и они вместе ходили в лес за грибами
    Дед саид приехал в баку учиться в политехничеком институте
    жил в семинарии при мечете, в санатории познакомился с верой,
}


Вера_Николаевна_Перетягина -left-> Саид_Гафар_Оглы_Умеров
class Вера_Николаевна_Перетягина{

}

Умаров_Адиль_Саидович -up-|> Саид_Гафар_Оглы_Умеров
class Умаров_Адиль_Саидович{
Закончил школу в Баку и уехал учиться в ленинградский политехнический инстут
}

Эльмира_Яхья_Заде_Саидовна -up-|> Саид_Гафар_Оглы_Умеров
class Эльмира_Яхья_Заде_Саидовна{

}
@enduml

PlantUML version 1.2022.7(Mon Aug 22 20:01:30 MSK 2022)
(GPL source distribution)
Java Runtime: Java(TM) SE Runtime Environment
JVM: Java HotSpot(TM) 64-Bit Server VM
Default Encoding: Cp1251
Language: en
Country: US
--></g></svg>