<?xml version="1.0" encoding="UTF-8" standalone="no"?><svg xmlns="http://www.w3.org/2000/svg" xmlns:xlink="http://www.w3.org/1999/xlink" contentStyleType="text/css" height="494px" preserveAspectRatio="none" style="width:1299px;height:494px;background:#FFFFFF;" version="1.1" viewBox="0 0 1299 494" width="1299px" zoomAndPan="magnify"><defs/><g><!--MD5=[465be109f219a5e2fae4d8c9e26403aa]
class Гюльзар--><g id="elem_Гюльзар"><rect fill="#F1F1F1" height="48" id="Гюльзар" rx="2.5" ry="2.5" style="stroke:#181818;stroke-width:0.5;" width="89" x="7" y="115"/><ellipse cx="22" cy="131" fill="#ADD1B2" rx="11" ry="11" style="stroke:#181818;stroke-width:1.0;"/><path d="M24.7656,126.875 Q24.9219,126.6563 25.1094,126.5469 Q25.2969,126.4375 25.5156,126.4375 Q25.8906,126.4375 26.125,126.6953 Q26.3594,126.9531 26.3594,127.5625 L26.3594,129.0156 Q26.3594,129.625 26.125,129.8906 Q25.8906,130.1563 25.5156,130.1563 Q25.1719,130.1563 24.9688,129.9531 Q24.7656,129.7656 24.6563,129.25 Q24.6094,128.8906 24.4219,128.7031 Q24.0938,128.3281 23.4844,128.1094 Q22.875,127.8906 22.25,127.8906 Q21.4844,127.8906 20.8516,128.2188 Q20.2188,128.5469 19.7266,129.2969 Q19.2344,130.0469 19.2344,131.0781 L19.2344,132.1719 Q19.2344,133.4063 20.125,134.2266 Q21.0156,135.0469 22.6094,135.0469 Q23.5469,135.0469 24.2031,134.7969 Q24.5938,134.6406 25.0156,134.2031 Q25.2813,133.9375 25.4297,133.8594 Q25.5781,133.7813 25.7813,133.7813 Q26.1094,133.7813 26.3672,134.0391 Q26.625,134.2969 26.625,134.6406 Q26.625,134.9844 26.2813,135.3906 Q25.7813,135.9688 24.9844,136.2969 Q23.9063,136.75 22.6094,136.75 Q21.0938,136.75 19.8906,136.125 Q18.9063,135.625 18.2188,134.5547 Q17.5313,133.4844 17.5313,132.2031 L17.5313,131.0469 Q17.5313,129.7188 18.1484,128.5703 Q18.7656,127.4219 19.8594,126.8047 Q20.9531,126.1875 22.1875,126.1875 Q22.9219,126.1875 23.5703,126.3516 Q24.2188,126.5156 24.7656,126.875 Z " fill="#000000"/><text fill="#000000" font-family="sans-serif" font-size="14" lengthAdjust="spacing" textLength="57" x="36" y="136.7285">Гюльзар</text><line style="stroke:#181818;stroke-width:0.5;" x1="8" x2="95" y1="147" y2="147"/><line style="stroke:#181818;stroke-width:0.5;" x1="8" x2="95" y1="155" y2="155"/></g><!--MD5=[28473d5ca736062b11a0126d7c690b40]
class Гафар_Умеров--><g id="elem_Гафар_Умеров"><rect fill="#F1F1F1" height="48" id="Гафар_Умеров" rx="2.5" ry="2.5" style="stroke:#181818;stroke-width:0.5;" width="133" x="102" y="7"/><ellipse cx="117" cy="23" fill="#ADD1B2" rx="11" ry="11" style="stroke:#181818;stroke-width:1.0;"/><path d="M119.7656,18.875 Q119.9219,18.6563 120.1094,18.5469 Q120.2969,18.4375 120.5156,18.4375 Q120.8906,18.4375 121.125,18.6953 Q121.3594,18.9531 121.3594,19.5625 L121.3594,21.0156 Q121.3594,21.625 121.125,21.8906 Q120.8906,22.1563 120.5156,22.1563 Q120.1719,22.1563 119.9688,21.9531 Q119.7656,21.7656 119.6563,21.25 Q119.6094,20.8906 119.4219,20.7031 Q119.0938,20.3281 118.4844,20.1094 Q117.875,19.8906 117.25,19.8906 Q116.4844,19.8906 115.8516,20.2188 Q115.2188,20.5469 114.7266,21.2969 Q114.2344,22.0469 114.2344,23.0781 L114.2344,24.1719 Q114.2344,25.4063 115.125,26.2266 Q116.0156,27.0469 117.6094,27.0469 Q118.5469,27.0469 119.2031,26.7969 Q119.5938,26.6406 120.0156,26.2031 Q120.2813,25.9375 120.4297,25.8594 Q120.5781,25.7813 120.7813,25.7813 Q121.1094,25.7813 121.3672,26.0391 Q121.625,26.2969 121.625,26.6406 Q121.625,26.9844 121.2813,27.3906 Q120.7813,27.9688 119.9844,28.2969 Q118.9063,28.75 117.6094,28.75 Q116.0938,28.75 114.8906,28.125 Q113.9063,27.625 113.2188,26.5547 Q112.5313,25.4844 112.5313,24.2031 L112.5313,23.0469 Q112.5313,21.7188 113.1484,20.5703 Q113.7656,19.4219 114.8594,18.8047 Q115.9531,18.1875 117.1875,18.1875 Q117.9219,18.1875 118.5703,18.3516 Q119.2188,18.5156 119.7656,18.875 Z " fill="#000000"/><text fill="#000000" font-family="sans-serif" font-size="14" lengthAdjust="spacing" textLength="101" x="131" y="28.7285">Гафар_Умеров</text><line style="stroke:#181818;stroke-width:0.5;" x1="103" x2="234" y1="39" y2="39"/><line style="stroke:#181818;stroke-width:0.5;" x1="103" x2="234" y1="47" y2="47"/></g><!--MD5=[5cbbfa007e3b4932e6a7d4d143b99c45]
class Сабре--><g id="elem_Сабре"><rect fill="#F1F1F1" height="48" id="Сабре" rx="2.5" ry="2.5" style="stroke:#181818;stroke-width:0.5;" width="74" x="131.5" y="115"/><ellipse cx="146.5" cy="131" fill="#ADD1B2" rx="11" ry="11" style="stroke:#181818;stroke-width:1.0;"/><path d="M149.2656,126.875 Q149.4219,126.6563 149.6094,126.5469 Q149.7969,126.4375 150.0156,126.4375 Q150.3906,126.4375 150.625,126.6953 Q150.8594,126.9531 150.8594,127.5625 L150.8594,129.0156 Q150.8594,129.625 150.625,129.8906 Q150.3906,130.1563 150.0156,130.1563 Q149.6719,130.1563 149.4688,129.9531 Q149.2656,129.7656 149.1563,129.25 Q149.1094,128.8906 148.9219,128.7031 Q148.5938,128.3281 147.9844,128.1094 Q147.375,127.8906 146.75,127.8906 Q145.9844,127.8906 145.3516,128.2188 Q144.7188,128.5469 144.2266,129.2969 Q143.7344,130.0469 143.7344,131.0781 L143.7344,132.1719 Q143.7344,133.4063 144.625,134.2266 Q145.5156,135.0469 147.1094,135.0469 Q148.0469,135.0469 148.7031,134.7969 Q149.0938,134.6406 149.5156,134.2031 Q149.7813,133.9375 149.9297,133.8594 Q150.0781,133.7813 150.2813,133.7813 Q150.6094,133.7813 150.8672,134.0391 Q151.125,134.2969 151.125,134.6406 Q151.125,134.9844 150.7813,135.3906 Q150.2813,135.9688 149.4844,136.2969 Q148.4063,136.75 147.1094,136.75 Q145.5938,136.75 144.3906,136.125 Q143.4063,135.625 142.7188,134.5547 Q142.0313,133.4844 142.0313,132.2031 L142.0313,131.0469 Q142.0313,129.7188 142.6484,128.5703 Q143.2656,127.4219 144.3594,126.8047 Q145.4531,126.1875 146.6875,126.1875 Q147.4219,126.1875 148.0703,126.3516 Q148.7188,126.5156 149.2656,126.875 Z " fill="#000000"/><text fill="#000000" font-family="sans-serif" font-size="14" lengthAdjust="spacing" textLength="42" x="160.5" y="136.7285">Сабре</text><line style="stroke:#181818;stroke-width:0.5;" x1="132.5" x2="204.5" y1="147" y2="147"/><line style="stroke:#181818;stroke-width:0.5;" x1="132.5" x2="204.5" y1="155" y2="155"/></g><!--MD5=[8565bad1bc4ff11a2c9a792681eeeb4f]
class Саид_Гафар_Оглы_Умеров--><g id="elem_Саид_Гафар_Оглы_Умеров"><rect fill="#F1F1F1" height="48" id="Саид_Гафар_Оглы_Умеров" rx="2.5" ry="2.5" style="stroke:#181818;stroke-width:0.5;" width="217" x="512" y="115"/><ellipse cx="527" cy="131" fill="#ADD1B2" rx="11" ry="11" style="stroke:#181818;stroke-width:1.0;"/><path d="M529.7656,126.875 Q529.9219,126.6563 530.1094,126.5469 Q530.2969,126.4375 530.5156,126.4375 Q530.8906,126.4375 531.125,126.6953 Q531.3594,126.9531 531.3594,127.5625 L531.3594,129.0156 Q531.3594,129.625 531.125,129.8906 Q530.8906,130.1563 530.5156,130.1563 Q530.1719,130.1563 529.9688,129.9531 Q529.7656,129.7656 529.6563,129.25 Q529.6094,128.8906 529.4219,128.7031 Q529.0938,128.3281 528.4844,128.1094 Q527.875,127.8906 527.25,127.8906 Q526.4844,127.8906 525.8516,128.2188 Q525.2188,128.5469 524.7266,129.2969 Q524.2344,130.0469 524.2344,131.0781 L524.2344,132.1719 Q524.2344,133.4063 525.125,134.2266 Q526.0156,135.0469 527.6094,135.0469 Q528.5469,135.0469 529.2031,134.7969 Q529.5938,134.6406 530.0156,134.2031 Q530.2813,133.9375 530.4297,133.8594 Q530.5781,133.7813 530.7813,133.7813 Q531.1094,133.7813 531.3672,134.0391 Q531.625,134.2969 531.625,134.6406 Q531.625,134.9844 531.2813,135.3906 Q530.7813,135.9688 529.9844,136.2969 Q528.9063,136.75 527.6094,136.75 Q526.0938,136.75 524.8906,136.125 Q523.9063,135.625 523.2188,134.5547 Q522.5313,133.4844 522.5313,132.2031 L522.5313,131.0469 Q522.5313,129.7188 523.1484,128.5703 Q523.7656,127.4219 524.8594,126.8047 Q525.9531,126.1875 527.1875,126.1875 Q527.9219,126.1875 528.5703,126.3516 Q529.2188,126.5156 529.7656,126.875 Z " fill="#000000"/><text fill="#000000" font-family="sans-serif" font-size="14" lengthAdjust="spacing" textLength="185" x="541" y="136.7285">Саид_Гафар_Оглы_Умеров</text><line style="stroke:#181818;stroke-width:0.5;" x1="513" x2="728" y1="147" y2="147"/><line style="stroke:#181818;stroke-width:0.5;" x1="513" x2="728" y1="155" y2="155"/></g><!--MD5=[0b150fb24fb95ab45441a89887810bbb]
class Вера_Николаевна_Перетягина--><g id="elem_Вера_Николаевна_Перетягина"><rect fill="#F1F1F1" height="48" id="Вера_Николаевна_Перетягина" rx="2.5" ry="2.5" style="stroke:#181818;stroke-width:0.5;" width="236" x="240.5" y="115"/><ellipse cx="255.5" cy="131" fill="#ADD1B2" rx="11" ry="11" style="stroke:#181818;stroke-width:1.0;"/><path d="M258.2656,126.875 Q258.4219,126.6563 258.6094,126.5469 Q258.7969,126.4375 259.0156,126.4375 Q259.3906,126.4375 259.625,126.6953 Q259.8594,126.9531 259.8594,127.5625 L259.8594,129.0156 Q259.8594,129.625 259.625,129.8906 Q259.3906,130.1563 259.0156,130.1563 Q258.6719,130.1563 258.4688,129.9531 Q258.2656,129.7656 258.1563,129.25 Q258.1094,128.8906 257.9219,128.7031 Q257.5938,128.3281 256.9844,128.1094 Q256.375,127.8906 255.75,127.8906 Q254.9844,127.8906 254.3516,128.2188 Q253.7188,128.5469 253.2266,129.2969 Q252.7344,130.0469 252.7344,131.0781 L252.7344,132.1719 Q252.7344,133.4063 253.625,134.2266 Q254.5156,135.0469 256.1094,135.0469 Q257.0469,135.0469 257.7031,134.7969 Q258.0938,134.6406 258.5156,134.2031 Q258.7813,133.9375 258.9297,133.8594 Q259.0781,133.7813 259.2813,133.7813 Q259.6094,133.7813 259.8672,134.0391 Q260.125,134.2969 260.125,134.6406 Q260.125,134.9844 259.7813,135.3906 Q259.2813,135.9688 258.4844,136.2969 Q257.4063,136.75 256.1094,136.75 Q254.5938,136.75 253.3906,136.125 Q252.4063,135.625 251.7188,134.5547 Q251.0313,133.4844 251.0313,132.2031 L251.0313,131.0469 Q251.0313,129.7188 251.6484,128.5703 Q252.2656,127.4219 253.3594,126.8047 Q254.4531,126.1875 255.6875,126.1875 Q256.4219,126.1875 257.0703,126.3516 Q257.7188,126.5156 258.2656,126.875 Z " fill="#000000"/><text fill="#000000" font-family="sans-serif" font-size="14" lengthAdjust="spacing" textLength="204" x="269.5" y="136.7285">Вера_Николаевна_Перетягина</text><line style="stroke:#181818;stroke-width:0.5;" x1="241.5" x2="475.5" y1="147" y2="147"/><line style="stroke:#181818;stroke-width:0.5;" x1="241.5" x2="475.5" y1="155" y2="155"/></g><!--MD5=[d5090f097b6df435ee458cd2996943e1]
class Умаров_Адиль_Саидович--><g id="elem_Умаров_Адиль_Саидович"><rect fill="#F1F1F1" height="48" id="Умаров_Адиль_Саидович" rx="2.5" ry="2.5" style="stroke:#181818;stroke-width:0.5;" width="203" x="793" y="223"/><ellipse cx="808" cy="239" fill="#ADD1B2" rx="11" ry="11" style="stroke:#181818;stroke-width:1.0;"/><path d="M810.7656,234.875 Q810.9219,234.6563 811.1094,234.5469 Q811.2969,234.4375 811.5156,234.4375 Q811.8906,234.4375 812.125,234.6953 Q812.3594,234.9531 812.3594,235.5625 L812.3594,237.0156 Q812.3594,237.625 812.125,237.8906 Q811.8906,238.1563 811.5156,238.1563 Q811.1719,238.1563 810.9688,237.9531 Q810.7656,237.7656 810.6563,237.25 Q810.6094,236.8906 810.4219,236.7031 Q810.0938,236.3281 809.4844,236.1094 Q808.875,235.8906 808.25,235.8906 Q807.4844,235.8906 806.8516,236.2188 Q806.2188,236.5469 805.7266,237.2969 Q805.2344,238.0469 805.2344,239.0781 L805.2344,240.1719 Q805.2344,241.4063 806.125,242.2266 Q807.0156,243.0469 808.6094,243.0469 Q809.5469,243.0469 810.2031,242.7969 Q810.5938,242.6406 811.0156,242.2031 Q811.2813,241.9375 811.4297,241.8594 Q811.5781,241.7813 811.7813,241.7813 Q812.1094,241.7813 812.3672,242.0391 Q812.625,242.2969 812.625,242.6406 Q812.625,242.9844 812.2813,243.3906 Q811.7813,243.9688 810.9844,244.2969 Q809.9063,244.75 808.6094,244.75 Q807.0938,244.75 805.8906,244.125 Q804.9063,243.625 804.2188,242.5547 Q803.5313,241.4844 803.5313,240.2031 L803.5313,239.0469 Q803.5313,237.7188 804.1484,236.5703 Q804.7656,235.4219 805.8594,234.8047 Q806.9531,234.1875 808.1875,234.1875 Q808.9219,234.1875 809.5703,234.3516 Q810.2188,234.5156 810.7656,234.875 Z " fill="#000000"/><text fill="#000000" font-family="sans-serif" font-size="14" lengthAdjust="spacing" textLength="171" x="822" y="244.7285">Умаров_Адиль_Саидович</text><line style="stroke:#181818;stroke-width:0.5;" x1="794" x2="995" y1="255" y2="255"/><line style="stroke:#181818;stroke-width:0.5;" x1="794" x2="995" y1="263" y2="263"/></g><!--MD5=[13b3a519a76fc97c66c2064e66081de8]
class Вощинская_Нина_Александровна--><g id="elem_Вощинская_Нина_Александровна"><rect fill="#F1F1F1" height="48" id="Вощинская_Нина_Александровна" rx="2.5" ry="2.5" style="stroke:#181818;stroke-width:0.5;" width="255" x="503" y="223"/><ellipse cx="518" cy="239" fill="#ADD1B2" rx="11" ry="11" style="stroke:#181818;stroke-width:1.0;"/><path d="M520.7656,234.875 Q520.9219,234.6563 521.1094,234.5469 Q521.2969,234.4375 521.5156,234.4375 Q521.8906,234.4375 522.125,234.6953 Q522.3594,234.9531 522.3594,235.5625 L522.3594,237.0156 Q522.3594,237.625 522.125,237.8906 Q521.8906,238.1563 521.5156,238.1563 Q521.1719,238.1563 520.9688,237.9531 Q520.7656,237.7656 520.6563,237.25 Q520.6094,236.8906 520.4219,236.7031 Q520.0938,236.3281 519.4844,236.1094 Q518.875,235.8906 518.25,235.8906 Q517.4844,235.8906 516.8516,236.2188 Q516.2188,236.5469 515.7266,237.2969 Q515.2344,238.0469 515.2344,239.0781 L515.2344,240.1719 Q515.2344,241.4063 516.125,242.2266 Q517.0156,243.0469 518.6094,243.0469 Q519.5469,243.0469 520.2031,242.7969 Q520.5938,242.6406 521.0156,242.2031 Q521.2813,241.9375 521.4297,241.8594 Q521.5781,241.7813 521.7813,241.7813 Q522.1094,241.7813 522.3672,242.0391 Q522.625,242.2969 522.625,242.6406 Q522.625,242.9844 522.2813,243.3906 Q521.7813,243.9688 520.9844,244.2969 Q519.9063,244.75 518.6094,244.75 Q517.0938,244.75 515.8906,244.125 Q514.9063,243.625 514.2188,242.5547 Q513.5313,241.4844 513.5313,240.2031 L513.5313,239.0469 Q513.5313,237.7188 514.1484,236.5703 Q514.7656,235.4219 515.8594,234.8047 Q516.9531,234.1875 518.1875,234.1875 Q518.9219,234.1875 519.5703,234.3516 Q520.2188,234.5156 520.7656,234.875 Z " fill="#000000"/><text fill="#000000" font-family="sans-serif" font-size="14" lengthAdjust="spacing" textLength="223" x="532" y="244.7285">Вощинская_Нина_Александровна</text><line style="stroke:#181818;stroke-width:0.5;" x1="504" x2="757" y1="255" y2="255"/><line style="stroke:#181818;stroke-width:0.5;" x1="504" x2="757" y1="263" y2="263"/></g><!--MD5=[1308ef7ebeaecfe79b928675177db9bc]
class Эльмира_Яхья_Заде_Саидовна--><g id="elem_Эльмира_Яхья_Заде_Саидовна"><rect fill="#F1F1F1" height="48" id="Эльмира_Яхья_Заде_Саидовна" rx="2.5" ry="2.5" style="stroke:#181818;stroke-width:0.5;" width="245" x="223" y="223"/><ellipse cx="238" cy="239" fill="#ADD1B2" rx="11" ry="11" style="stroke:#181818;stroke-width:1.0;"/><path d="M240.7656,234.875 Q240.9219,234.6563 241.1094,234.5469 Q241.2969,234.4375 241.5156,234.4375 Q241.8906,234.4375 242.125,234.6953 Q242.3594,234.9531 242.3594,235.5625 L242.3594,237.0156 Q242.3594,237.625 242.125,237.8906 Q241.8906,238.1563 241.5156,238.1563 Q241.1719,238.1563 240.9688,237.9531 Q240.7656,237.7656 240.6563,237.25 Q240.6094,236.8906 240.4219,236.7031 Q240.0938,236.3281 239.4844,236.1094 Q238.875,235.8906 238.25,235.8906 Q237.4844,235.8906 236.8516,236.2188 Q236.2188,236.5469 235.7266,237.2969 Q235.2344,238.0469 235.2344,239.0781 L235.2344,240.1719 Q235.2344,241.4063 236.125,242.2266 Q237.0156,243.0469 238.6094,243.0469 Q239.5469,243.0469 240.2031,242.7969 Q240.5938,242.6406 241.0156,242.2031 Q241.2813,241.9375 241.4297,241.8594 Q241.5781,241.7813 241.7813,241.7813 Q242.1094,241.7813 242.3672,242.0391 Q242.625,242.2969 242.625,242.6406 Q242.625,242.9844 242.2813,243.3906 Q241.7813,243.9688 240.9844,244.2969 Q239.9063,244.75 238.6094,244.75 Q237.0938,244.75 235.8906,244.125 Q234.9063,243.625 234.2188,242.5547 Q233.5313,241.4844 233.5313,240.2031 L233.5313,239.0469 Q233.5313,237.7188 234.1484,236.5703 Q234.7656,235.4219 235.8594,234.8047 Q236.9531,234.1875 238.1875,234.1875 Q238.9219,234.1875 239.5703,234.3516 Q240.2188,234.5156 240.7656,234.875 Z " fill="#000000"/><text fill="#000000" font-family="sans-serif" font-size="14" lengthAdjust="spacing" textLength="213" x="252" y="244.7285">Эльмира_Яхья_Заде_Саидовна</text><line style="stroke:#181818;stroke-width:0.5;" x1="224" x2="467" y1="255" y2="255"/><line style="stroke:#181818;stroke-width:0.5;" x1="224" x2="467" y1="263" y2="263"/></g><!--MD5=[2324516157cecbe9c969e7c9f0d61e5e]
class Умарова_Наталья_Адильевна--><g id="elem_Умарова_Наталья_Адильевна"><rect fill="#F1F1F1" height="48" id="Умарова_Наталья_Адильевна" rx="2.5" ry="2.5" style="stroke:#181818;stroke-width:0.5;" width="234" x="777.5" y="331"/><ellipse cx="792.5" cy="347" fill="#ADD1B2" rx="11" ry="11" style="stroke:#181818;stroke-width:1.0;"/><path d="M795.2656,342.875 Q795.4219,342.6563 795.6094,342.5469 Q795.7969,342.4375 796.0156,342.4375 Q796.3906,342.4375 796.625,342.6953 Q796.8594,342.9531 796.8594,343.5625 L796.8594,345.0156 Q796.8594,345.625 796.625,345.8906 Q796.3906,346.1563 796.0156,346.1563 Q795.6719,346.1563 795.4688,345.9531 Q795.2656,345.7656 795.1563,345.25 Q795.1094,344.8906 794.9219,344.7031 Q794.5938,344.3281 793.9844,344.1094 Q793.375,343.8906 792.75,343.8906 Q791.9844,343.8906 791.3516,344.2188 Q790.7188,344.5469 790.2266,345.2969 Q789.7344,346.0469 789.7344,347.0781 L789.7344,348.1719 Q789.7344,349.4063 790.625,350.2266 Q791.5156,351.0469 793.1094,351.0469 Q794.0469,351.0469 794.7031,350.7969 Q795.0938,350.6406 795.5156,350.2031 Q795.7813,349.9375 795.9297,349.8594 Q796.0781,349.7813 796.2813,349.7813 Q796.6094,349.7813 796.8672,350.0391 Q797.125,350.2969 797.125,350.6406 Q797.125,350.9844 796.7813,351.3906 Q796.2813,351.9688 795.4844,352.2969 Q794.4063,352.75 793.1094,352.75 Q791.5938,352.75 790.3906,352.125 Q789.4063,351.625 788.7188,350.5547 Q788.0313,349.4844 788.0313,348.2031 L788.0313,347.0469 Q788.0313,345.7188 788.6484,344.5703 Q789.2656,343.4219 790.3594,342.8047 Q791.4531,342.1875 792.6875,342.1875 Q793.4219,342.1875 794.0703,342.3516 Q794.7188,342.5156 795.2656,342.875 Z " fill="#000000"/><text fill="#000000" font-family="sans-serif" font-size="14" lengthAdjust="spacing" textLength="202" x="806.5" y="352.7285">Умарова_Наталья_Адильевна</text><line style="stroke:#181818;stroke-width:0.5;" x1="778.5" x2="1010.5" y1="363" y2="363"/><line style="stroke:#181818;stroke-width:0.5;" x1="778.5" x2="1010.5" y1="371" y2="371"/></g><!--MD5=[e1c87148cf0b56c8c8640cc7856b012b]
class Пичугин_Юрий_Константинович--><g id="elem_Пичугин_Юрий_Константинович"><rect fill="#F1F1F1" height="48" id="Пичугин_Юрий_Константинович" rx="2.5" ry="2.5" style="stroke:#181818;stroke-width:0.5;" width="245" x="1047" y="331"/><ellipse cx="1062" cy="347" fill="#ADD1B2" rx="11" ry="11" style="stroke:#181818;stroke-width:1.0;"/><path d="M1064.7656,342.875 Q1064.9219,342.6563 1065.1094,342.5469 Q1065.2969,342.4375 1065.5156,342.4375 Q1065.8906,342.4375 1066.125,342.6953 Q1066.3594,342.9531 1066.3594,343.5625 L1066.3594,345.0156 Q1066.3594,345.625 1066.125,345.8906 Q1065.8906,346.1563 1065.5156,346.1563 Q1065.1719,346.1563 1064.9688,345.9531 Q1064.7656,345.7656 1064.6563,345.25 Q1064.6094,344.8906 1064.4219,344.7031 Q1064.0938,344.3281 1063.4844,344.1094 Q1062.875,343.8906 1062.25,343.8906 Q1061.4844,343.8906 1060.8516,344.2188 Q1060.2188,344.5469 1059.7266,345.2969 Q1059.2344,346.0469 1059.2344,347.0781 L1059.2344,348.1719 Q1059.2344,349.4063 1060.125,350.2266 Q1061.0156,351.0469 1062.6094,351.0469 Q1063.5469,351.0469 1064.2031,350.7969 Q1064.5938,350.6406 1065.0156,350.2031 Q1065.2813,349.9375 1065.4297,349.8594 Q1065.5781,349.7813 1065.7813,349.7813 Q1066.1094,349.7813 1066.3672,350.0391 Q1066.625,350.2969 1066.625,350.6406 Q1066.625,350.9844 1066.2813,351.3906 Q1065.7813,351.9688 1064.9844,352.2969 Q1063.9063,352.75 1062.6094,352.75 Q1061.0938,352.75 1059.8906,352.125 Q1058.9063,351.625 1058.2188,350.5547 Q1057.5313,349.4844 1057.5313,348.2031 L1057.5313,347.0469 Q1057.5313,345.7188 1058.1484,344.5703 Q1058.7656,343.4219 1059.8594,342.8047 Q1060.9531,342.1875 1062.1875,342.1875 Q1062.9219,342.1875 1063.5703,342.3516 Q1064.2188,342.5156 1064.7656,342.875 Z " fill="#000000"/><text fill="#000000" font-family="sans-serif" font-size="14" lengthAdjust="spacing" textLength="213" x="1076" y="352.7285">Пичугин_Юрий_Константинович</text><line style="stroke:#181818;stroke-width:0.5;" x1="1048" x2="1291" y1="363" y2="363"/><line style="stroke:#181818;stroke-width:0.5;" x1="1048" x2="1291" y1="371" y2="371"/></g><!--MD5=[d3d92243a0db24fb34c668e1e038c37b]
class Пичугин_Никита_Юрьевич--><g id="elem_Пичугин_Никита_Юрьевич"><rect fill="#F1F1F1" height="48" id="Пичугин_Никита_Юрьевич" rx="2.5" ry="2.5" style="stroke:#181818;stroke-width:0.5;" width="206" x="672.5" y="439"/><ellipse cx="687.5" cy="455" fill="#ADD1B2" rx="11" ry="11" style="stroke:#181818;stroke-width:1.0;"/><path d="M690.2656,450.875 Q690.4219,450.6563 690.6094,450.5469 Q690.7969,450.4375 691.0156,450.4375 Q691.3906,450.4375 691.625,450.6953 Q691.8594,450.9531 691.8594,451.5625 L691.8594,453.0156 Q691.8594,453.625 691.625,453.8906 Q691.3906,454.1563 691.0156,454.1563 Q690.6719,454.1563 690.4688,453.9531 Q690.2656,453.7656 690.1563,453.25 Q690.1094,452.8906 689.9219,452.7031 Q689.5938,452.3281 688.9844,452.1094 Q688.375,451.8906 687.75,451.8906 Q686.9844,451.8906 686.3516,452.2188 Q685.7188,452.5469 685.2266,453.2969 Q684.7344,454.0469 684.7344,455.0781 L684.7344,456.1719 Q684.7344,457.4063 685.625,458.2266 Q686.5156,459.0469 688.1094,459.0469 Q689.0469,459.0469 689.7031,458.7969 Q690.0938,458.6406 690.5156,458.2031 Q690.7813,457.9375 690.9297,457.8594 Q691.0781,457.7813 691.2813,457.7813 Q691.6094,457.7813 691.8672,458.0391 Q692.125,458.2969 692.125,458.6406 Q692.125,458.9844 691.7813,459.3906 Q691.2813,459.9688 690.4844,460.2969 Q689.4063,460.75 688.1094,460.75 Q686.5938,460.75 685.3906,460.125 Q684.4063,459.625 683.7188,458.5547 Q683.0313,457.4844 683.0313,456.2031 L683.0313,455.0469 Q683.0313,453.7188 683.6484,452.5703 Q684.2656,451.4219 685.3594,450.8047 Q686.4531,450.1875 687.6875,450.1875 Q688.4219,450.1875 689.0703,450.3516 Q689.7188,450.5156 690.2656,450.875 Z " fill="#000000"/><text fill="#000000" font-family="sans-serif" font-size="14" lengthAdjust="spacing" textLength="174" x="701.5" y="460.7285">Пичугин_Никита_Юрьевич</text><line style="stroke:#181818;stroke-width:0.5;" x1="673.5" x2="877.5" y1="471" y2="471"/><line style="stroke:#181818;stroke-width:0.5;" x1="673.5" x2="877.5" y1="479" y2="479"/></g><!--MD5=[d66fcca07d7b9c9b6e69a302bd497565]
class Пичугин_Павел_Юрьевич--><g id="elem_Пичугин_Павел_Юрьевич"><rect fill="#F1F1F1" height="48" id="Пичугин_Павел_Юрьевич" rx="2.5" ry="2.5" style="stroke:#181818;stroke-width:0.5;" width="200" x="913.5" y="439"/><ellipse cx="928.5" cy="455" fill="#ADD1B2" rx="11" ry="11" style="stroke:#181818;stroke-width:1.0;"/><path d="M931.2656,450.875 Q931.4219,450.6563 931.6094,450.5469 Q931.7969,450.4375 932.0156,450.4375 Q932.3906,450.4375 932.625,450.6953 Q932.8594,450.9531 932.8594,451.5625 L932.8594,453.0156 Q932.8594,453.625 932.625,453.8906 Q932.3906,454.1563 932.0156,454.1563 Q931.6719,454.1563 931.4688,453.9531 Q931.2656,453.7656 931.1563,453.25 Q931.1094,452.8906 930.9219,452.7031 Q930.5938,452.3281 929.9844,452.1094 Q929.375,451.8906 928.75,451.8906 Q927.9844,451.8906 927.3516,452.2188 Q926.7188,452.5469 926.2266,453.2969 Q925.7344,454.0469 925.7344,455.0781 L925.7344,456.1719 Q925.7344,457.4063 926.625,458.2266 Q927.5156,459.0469 929.1094,459.0469 Q930.0469,459.0469 930.7031,458.7969 Q931.0938,458.6406 931.5156,458.2031 Q931.7813,457.9375 931.9297,457.8594 Q932.0781,457.7813 932.2813,457.7813 Q932.6094,457.7813 932.8672,458.0391 Q933.125,458.2969 933.125,458.6406 Q933.125,458.9844 932.7813,459.3906 Q932.2813,459.9688 931.4844,460.2969 Q930.4063,460.75 929.1094,460.75 Q927.5938,460.75 926.3906,460.125 Q925.4063,459.625 924.7188,458.5547 Q924.0313,457.4844 924.0313,456.2031 L924.0313,455.0469 Q924.0313,453.7188 924.6484,452.5703 Q925.2656,451.4219 926.3594,450.8047 Q927.4531,450.1875 928.6875,450.1875 Q929.4219,450.1875 930.0703,450.3516 Q930.7188,450.5156 931.2656,450.875 Z " fill="#000000"/><text fill="#000000" font-family="sans-serif" font-size="14" lengthAdjust="spacing" textLength="168" x="942.5" y="460.7285">Пичугин_Павел_Юрьевич</text><line style="stroke:#181818;stroke-width:0.5;" x1="914.5" x2="1112.5" y1="471" y2="471"/><line style="stroke:#181818;stroke-width:0.5;" x1="914.5" x2="1112.5" y1="479" y2="479"/></g><!--MD5=[8d8b52ff24fa468f2f71a6e4cd259c5c]
reverse link Гафар_Умеров to Гюльзар--><g id="link_Гафар_Умеров_Гюльзар"><path codeLine="1" d="M128.13,68.57 C111.26,83.86 92.15,101.17 77.24,114.68 " fill="none" id="Гафар_Умеров-backto-Гюльзар" style="stroke:#181818;stroke-width:1.0;"/><polygon fill="none" points="123.59,63.24,143.11,55,132.99,73.62,123.59,63.24" style="stroke:#181818;stroke-width:1.0;"/></g><!--MD5=[af2b779cff3cfa623225420b6d814c83]
reverse link Гафар_Умеров to Сабре--><g id="link_Гафар_Умеров_Сабре"><path codeLine="2" d="M168.5,75.02 C168.5,88.58 168.5,103.04 168.5,114.68 " fill="none" id="Гафар_Умеров-backto-Сабре" style="stroke:#181818;stroke-width:1.0;"/><polygon fill="none" points="161.5,75,168.5,55,175.5,75,161.5,75" style="stroke:#181818;stroke-width:1.0;"/></g><!--MD5=[00ee66789e993d68f9934cbe21385e90]
reverse link Гафар_Умеров to Саид_Гафар_Оглы_Умеров--><g id="link_Гафар_Умеров_Саид_Гафар_Оглы_Умеров"><path codeLine="4" d="M254.77,52.23 C331.1,70.13 442.43,96.24 522.18,114.94 " fill="none" id="Гафар_Умеров-backto-Саид_Гафар_Оглы_Умеров" style="stroke:#181818;stroke-width:1.0;"/><polygon fill="none" points="253.07,59.02,235.19,47.64,256.26,45.39,253.07,59.02" style="stroke:#181818;stroke-width:1.0;"/></g><!--MD5=[3c12d9bcc422f8d97c18a7c51c56cbd7]
link Вера_Николаевна_Перетягина to Саид_Гафар_Оглы_Умеров--><g id="link_Вера_Николаевна_Перетягина_Саид_Гафар_Оглы_Умеров"><path codeLine="5" d="M476.71,139 C486.67,139 496.64,139 506.6,139 " fill="none" id="Вера_Николаевна_Перетягина-to-Саид_Гафар_Оглы_Умеров" style="stroke:#181818;stroke-width:1.0;"/><polygon fill="#181818" points="511.81,139,502.81,135,506.81,139,502.81,143,511.81,139" style="stroke:#181818;stroke-width:1.0;"/></g><!--MD5=[600bc25c282f2172e33cc6efcefb92ad]
reverse link Саид_Гафар_Оглы_Умеров to Умаров_Адиль_Саидович--><g id="link_Саид_Гафар_Оглы_Умеров_Умаров_Адиль_Саидович"><path codeLine="9" d="M698.74,170.27 C741.96,186.99 794.8,207.43 834.69,222.86 " fill="none" id="Саид_Гафар_Оглы_Умеров-backto-Умаров_Адиль_Саидович" style="stroke:#181818;stroke-width:1.0;"/><polygon fill="none" points="696.08,176.75,679.95,163,701.13,163.69,696.08,176.75" style="stroke:#181818;stroke-width:1.0;"/></g><!--MD5=[ce9d4dfa6cd61f625fb331f3ffa2ca53]
link Вощинская_Нина_Александровна to Умаров_Адиль_Саидович--><g id="link_Вощинская_Нина_Александровна_Умаров_Адиль_Саидович"><path codeLine="10" d="M758.12,247 C767.95,247 777.78,247 787.61,247 " fill="none" id="Вощинская_Нина_Александровна-to-Умаров_Адиль_Саидович" style="stroke:#181818;stroke-width:1.0;"/><polygon fill="#181818" points="792.75,247,783.75,243,787.75,247,783.75,251,792.75,247" style="stroke:#181818;stroke-width:1.0;"/></g><!--MD5=[53be0c653955719388b925c99c38ee56]
reverse link Саид_Гафар_Оглы_Умеров to Эльмира_Яхья_Заде_Саидовна--><g id="link_Саид_Гафар_Оглы_Умеров_Эльмира_Яхья_Заде_Саидовна"><path codeLine="11" d="M541.97,170.27 C498.6,186.99 445.56,207.43 405.53,222.86 " fill="none" id="Саид_Гафар_Оглы_Умеров-backto-Эльмира_Яхья_Заде_Саидовна" style="stroke:#181818;stroke-width:1.0;"/><polygon fill="none" points="539.65,163.66,560.83,163,544.69,176.73,539.65,163.66" style="stroke:#181818;stroke-width:1.0;"/></g><!--MD5=[b40d64c381ebbce260a31faaa06eb1c9]
reverse link Умаров_Адиль_Саидович to Умарова_Наталья_Адильевна--><g id="link_Умаров_Адиль_Саидович_Умарова_Наталья_Адильевна"><path codeLine="14" d="M894.5,291.02 C894.5,304.58 894.5,319.04 894.5,330.68 " fill="none" id="Умаров_Адиль_Саидович-backto-Умарова_Наталья_Адильевна" style="stroke:#181818;stroke-width:1.0;"/><polygon fill="none" points="887.5,291,894.5,271,901.5,291,887.5,291" style="stroke:#181818;stroke-width:1.0;"/></g><!--MD5=[1cb82372cf63e849e5ce16882ccf2cbb]
reverse link Умарова_Наталья_Адильевна to Пичугин_Юрий_Константинович--><g id="link_Умарова_Наталья_Адильевна_Пичугин_Юрий_Константинович"><path codeLine="15" d="M1016.81,355 C1026.79,355 1036.77,355 1046.75,355 " fill="none" id="Умарова_Наталья_Адильевна-backto-Пичугин_Юрий_Константинович" style="stroke:#181818;stroke-width:1.0;"/><polygon fill="#181818" points="1011.59,355,1020.59,359,1016.59,355,1020.59,351,1011.59,355" style="stroke:#181818;stroke-width:1.0;"/></g><!--MD5=[8c8b15aad6e7d73c36f51ca7ed7b9e0f]
reverse link Умарова_Наталья_Адильевна to Пичугин_Никита_Юрьевич--><g id="link_Умарова_Наталья_Адильевна_Пичугин_Никита_Юрьевич"><path codeLine="17" d="M853.71,392.34 C836.48,407.68 816.93,425.1 801.68,438.68 " fill="none" id="Умарова_Наталья_Адильевна-backto-Пичугин_Никита_Юрьевич" style="stroke:#181818;stroke-width:1.0;"/><polygon fill="none" points="849.09,387.08,868.68,379,858.4,397.53,849.09,387.08" style="stroke:#181818;stroke-width:1.0;"/></g><!--MD5=[6d5c70ae6f0312f264562c7da8435564]
reverse link Умарова_Наталья_Адильевна to Пичугин_Павел_Юрьевич--><g id="link_Умарова_Наталья_Адильевна_Пичугин_Павел_Юрьевич"><path codeLine="18" d="M935.29,392.34 C952.52,407.68 972.07,425.1 987.32,438.68 " fill="none" id="Умарова_Наталья_Адильевна-backto-Пичугин_Павел_Юрьевич" style="stroke:#181818;stroke-width:1.0;"/><polygon fill="none" points="930.6,397.53,920.32,379,939.91,387.08,930.6,397.53" style="stroke:#181818;stroke-width:1.0;"/></g><!--MD5=[e1abc161aa560405dd7fe7b92d2d5a98]
@startuml
Гюльзар -up-|> Гафар_Умеров
Сабре -up-|> Гафар_Умеров

Саид_Гафар_Оглы_Умеров -up-|> Гафар_Умеров
    Вера_Николаевна_Перетягина -right-> Саид_Гафар_Оглы_Умеров



Умаров_Адиль_Саидович -up-|> Саид_Гафар_Оглы_Умеров
    Вощинская_Нина_Александровна -right-> Умаров_Адиль_Саидович
Эльмира_Яхья_Заде_Саидовна -up-|> Саид_Гафар_Оглы_Умеров


Умарова_Наталья_Адильевна -up-|> Умаров_Адиль_Саидович
Пичугин_Юрий_Константинович -left-> Умарова_Наталья_Адильевна

Пичугин_Никита_Юрьевич -up-|> Умарова_Наталья_Адильевна
Пичугин_Павел_Юрьевич -up-|> Умарова_Наталья_Адильевна
@enduml

PlantUML version 1.2022.7(Mon Aug 22 20:01:30 MSK 2022)
(GPL source distribution)
Java Runtime: Java(TM) SE Runtime Environment
JVM: Java HotSpot(TM) 64-Bit Server VM
Default Encoding: Cp1251
Language: en
Country: US
--></g></svg>